<svg version="1.1" id="Layer_1" xmlns="http://www.w3.org/2000/svg" xmlns:xlink="http://www.w3.org/1999/xlink" x="0px" y="0px" viewBox="0 0 500 500" style="width: 151px;" xml:space="preserve" data-imageid="coding-2-91" imageName="Coding 2" class="illustrations_image">
<style type="text/css">
	.st0_coding-2-91{fill:#E2A1DE;}
	.st1_coding-2-91{opacity:0.32;fill:url(#SVGID_1_);enable-background:new    ;}
	.st2_coding-2-91{opacity:0.32;fill:url(#SVGID_00000066474903661819527550000007318845125405433512_);enable-background:new    ;}
	.st3_coding-2-91{opacity:0.32;fill:url(#SVGID_00000143586776001682224240000012624655364116180377_);enable-background:new    ;}
	.st4_coding-2-91{fill:#053855;}
	.st5_coding-2-91{fill:#68E1FD;}
	.st6_coding-2-91{fill:#FFFFFF;}
	.st7_coding-2-91{opacity:0.1;fill:#053855;enable-background:new    ;}
	.st8_coding-2-91{fill:#56403D;}
	.st9_coding-2-91{fill:#999A1C;}
	.st10_coding-2-91{fill:#146666;}
	.st11_coding-2-91{fill:#2C9390;}
	.st12_coding-2-91{fill:#FE9881;}
	.st13_coding-2-91{fill:#FBB5AD;}
</style>
<path id="Base_coding-2-91" class="st0_coding-2-91" d="M33.5,319.1l177.7,102.6l265.6-152.5L298.9,166.5L33.5,319.1z"/>
<g id="Shadow_coding-2-91">
	
		<linearGradient id="SVGID_1_-coding-2-91" gradientUnits="userSpaceOnUse" x1="299.0466" y1="-696.6653" x2="315.9266" y2="-720.2553" gradientTransform="matrix(1 0 0 1 0 932.0699)">
		<stop offset="0" style="stop-color:#56403D;stop-opacity:0"/>
		<stop offset="0.98" style="stop-color:#56403D"/>
	</linearGradient>
	<path class="st1_coding-2-91" d="M306.6,198.9c-12.4,7.8-24.2,14.7-36,21.8c12.1,6.7,28.9,16.2,37.1,21.3c8.1-4.3,35.6-19.9,45.5-28&#10;&#9;&#9;L306.6,198.9z"/>
	
		<linearGradient id="SVGID_00000099649611686025533230000001320967404094157478_-coding-2-91" gradientUnits="userSpaceOnUse" x1="394.2199" y1="-641.21" x2="408.5599" y2="-661.2401" gradientTransform="matrix(1 0 0 1 0 932.0699)">
		<stop offset="0" style="stop-color:#56403D;stop-opacity:0"/>
		<stop offset="0.98" style="stop-color:#56403D"/>
	</linearGradient>
	<path style="opacity:0.32;fill:url(#SVGID_00000099649611686025533230000001320967404094157478_);enable-background:new    ;" d="&#10;&#9;&#9;M400.7,259.9c-10.5,6.6-20.6,12.5-30.6,18.5c10.3,5.7,24.5,13.7,31.5,18.1c6.9-3.7,30.2-16.9,38.6-23.8L400.7,259.9z"/>
	
		<linearGradient id="SVGID_00000095297563543291845670000006458294052344066451_-coding-2-91" gradientUnits="userSpaceOnUse" x1="120.1474" y1="-569.3489" x2="155.6274" y2="-618.909" gradientTransform="matrix(1 0 0 1 0 932.0699)">
		<stop offset="0" style="stop-color:#56403D;stop-opacity:0"/>
		<stop offset="0.98" style="stop-color:#56403D"/>
	</linearGradient>
	<path style="opacity:0.32;fill:url(#SVGID_00000095297563543291845670000006458294052344066451_);enable-background:new    ;" d="&#10;&#9;&#9;M151.2,385.2c17.5-9.5,78.9-48.3,96.3-58l-123.4-44.3l-79.1,42.3C63.4,334.8,125.8,369.5,151.2,385.2z"/>
</g>
<g id="Laptop_coding-2-91">
	<path class="st4_coding-2-91" d="M92.2,284.5l-17.7-119c-0.5-3.2,1.1-6.3,3.8-7.9l136.9-78.3c3.7-2.1,8.5-0.8,10.6,2.9c0,0,0,0,0,0&#10;&#9;&#9;c0.5,0.9,0.9,1.9,1,2.9L241.3,206c0.4,3.1-1.1,6.1-3.8,7.7l-133.8,76.5c-3.7,2.1-8.5,0.9-10.6-2.8&#10;&#9;&#9;C92.7,286.5,92.3,285.5,92.2,284.5z"/>
	<polygon class="st5_coding-2-91 targetColor" points="221.3,91.7 81.4,171.9 96.6,274.2 234.4,197.3 &#9;" style="fill: rgb(104, 225, 253);"/>
	<polyline class="st4_coding-2-91" points="343.1,268.4 343.1,273 340.8,275.8 &#9;"/>
	<path class="st4_coding-2-91" d="M250.9,212.5l89.6,55.5c2.6,1.7,3.4,5.1,1.7,7.7c-0.5,0.8-1.1,1.4-1.9,1.8l-136,76.9&#10;&#9;&#9;c-3.9,2.2-8.6,2.2-12.4-0.1l-89.2-52.5c-6.5-5.3-6-15.4,0-15.8l135.2-73.8C241.9,210,246.9,210,250.9,212.5z"/>
	<path class="st6_coding-2-91" d="M250.9,208.7l89.6,55.5c2.6,1.7,3.4,5.1,1.7,7.7c-0.5,0.8-1.1,1.4-1.9,1.8l-136,76.9&#10;&#9;&#9;c-3.9,2.2-8.6,2.2-12.4-0.1l-89.2-52.5c-3.3-1.9-4.4-6.2-2.5-9.5c0.6-1,1.4-1.9,2.5-2.5l135.2-77.7&#10;&#9;&#9;C241.9,206.1,246.9,206.2,250.9,208.7z"/>
	<path class="st5_coding-2-91 targetColor" d="M256.4,221.4l32.8,20.4c1.8,1.2,2.4,3.6,1.3,5.4c-0.4,0.6-0.8,1-1.4,1.4l-117.6,67c-3.6,2.1-8,2.1-11.6,0&#10;&#9;&#9;c-7.6-4.4-20.6-12.3-28.6-17.2c-2.3-1.4-3-4.3-1.6-6.6c0.4-0.7,1-1.3,1.7-1.7c23.8-13.8,101.4-59,118.4-68.8&#10;&#9;&#9;C251.8,220.1,254.4,220.2,256.4,221.4z" style="fill: rgb(104, 225, 253);"/>
	<path class="st5_coding-2-91 targetColor" d="M254.6,276.8l-41.1,23.1c-2,1.1-2.7,3.6-1.5,5.6c0,0,0,0,0,0c0.4,0.6,0.9,1.2,1.5,1.5l24.1,14.1&#10;&#9;&#9;c1.7,1,3.8,1,5.5,0l42-24c1.7-0.9,2.3-3,1.4-4.6c-0.3-0.6-0.8-1-1.4-1.4l-25-14.3C258.3,275.9,256.3,275.9,254.6,276.8z" style="fill: rgb(104, 225, 253);"/>
	<path class="st7_coding-2-91" d="M256.4,221.4l32.8,20.4c1.8,1.2,2.4,3.6,1.3,5.4c-0.4,0.6-0.8,1-1.4,1.4l-117.6,67c-3.6,2.1-8,2.1-11.6,0&#10;&#9;&#9;c-7.6-4.4-20.6-12.3-28.6-17.2c-2.3-1.4-3-4.3-1.6-6.6c0.4-0.7,1-1.3,1.7-1.7c23.8-13.8,101.4-59,118.4-68.8&#10;&#9;&#9;C251.8,220.1,254.4,220.2,256.4,221.4z"/>
	<path class="st7_coding-2-91" d="M254.6,276.8l-41.1,23.1c-2,1.1-2.7,3.6-1.5,5.6c0,0,0,0,0,0c0.4,0.6,0.9,1.2,1.5,1.5l24.1,14.1&#10;&#9;&#9;c1.7,1,3.8,1,5.5,0l42-24c1.7-0.9,2.3-3,1.4-4.6c-0.3-0.6-0.8-1-1.4-1.4l-25-14.3C258.3,275.9,256.3,275.9,254.6,276.8z"/>
	<polygon class="st6_coding-2-91" points="88.7,175.6 93,204.9 120.8,188.4 116.5,159.4 &#9;"/>
	<polygon class="st6_coding-2-91" points="94.2,210.3 101.8,261 129.5,244.2 122.1,194.1 &#9;"/>
	<path class="st6_coding-2-91" d="M136.6,240.4l49-28.1c0.5-0.3,0.7-0.9,0.4-1.4c-0.3-0.5-0.9-0.7-1.3-0.4c0,0-0.1,0-0.1,0.1l-49,28.1&#10;&#9;&#9;c-0.5,0.3-0.7,0.9-0.4,1.3c0,0,0,0.1,0.1,0.1C135.5,240.6,136.1,240.7,136.6,240.4L136.6,240.4z"/>
	<path class="st6_coding-2-91" d="M136,233.7l49-28.1c0.5-0.3,0.7-0.9,0.4-1.4c-0.3-0.5-0.9-0.7-1.3-0.4c0,0-0.1,0-0.1,0.1l-49,28.1&#10;&#9;&#9;c-0.5,0.3-0.7,0.9-0.4,1.4S135.5,234,136,233.7z"/>
	<path class="st6_coding-2-91" d="M134.4,226.4l49-28.1c0.5-0.3,0.7-0.9,0.4-1.4c-0.3-0.5-0.9-0.7-1.3-0.4c0,0-0.1,0-0.1,0.1l-49,28.1&#10;&#9;&#9;c-0.5,0.3-0.7,0.9-0.4,1.4S133.9,226.7,134.4,226.4L134.4,226.4z"/>
	<path class="st6_coding-2-91" d="M121.3,162.2l23.5-13.5c0.5-0.3,0.7-0.9,0.4-1.4c-0.3-0.5-0.9-0.7-1.3-0.4c0,0-0.1,0-0.1,0.1l0,0l-23.5,13.5&#10;&#9;&#9;c-0.5,0.3-0.7,0.9-0.4,1.3c0,0,0,0.1,0.1,0.1C120.2,162.3,120.8,162.5,121.3,162.2z"/>
	<path class="st6_coding-2-91" d="M122.1,168.9l23.5-13.5c0.5-0.3,0.7-0.9,0.4-1.4c-0.3-0.5-0.9-0.7-1.4-0.4L121,167.1c-0.5,0.3-0.7,0.9-0.4,1.4&#10;&#9;&#9;C120.9,169.1,121.6,169.2,122.1,168.9z"/>
</g>
<g id="Plant_coding-2-91">
	<ellipse class="st5_coding-2-91 targetColor" cx="422.9" cy="262.5" rx="22.6" ry="15.9" style="fill: rgb(104, 225, 253);"/>
	<ellipse class="st8_coding-2-91" cx="422.9" cy="253.1" rx="16.9" ry="6.9"/>
	<path class="st9_coding-2-91" d="M424,253.3c1.4-1.9,2.7-3.8,4.1-6c1.8-2.8,3.5-5.7,5-8.6c1.4-2.6,2.6-5.4,3.6-8.2c1.1-3.1,2-6.2,2.7-9.4&#10;&#9;&#9;c0.2-0.8,0.3-1.7,0.5-2.5c0-0.4,0.1-0.4,0.1-0.3v-0.7c0.1-1.7,0.3-3.4,0.3-5.1c0.1-5.9-1.1-11.8-3.4-17.3&#10;&#9;&#9;c-6.1,8.9-10.2,18.9-12.1,29.5c-0.1,0.6-0.2,1.3-0.3,1.9c-0.2,1-0.2,1.2-0.2,1.6l-0.2,1.6c-0.1,0.8-0.2,1.6-0.2,2.4&#10;&#9;&#9;c-0.2,3.1-0.4,6.2-0.4,9.4C423.5,245.5,423.7,249.4,424,253.3z M431.2,206.6l1.3-1.4l0,0c-0.1,0.4-0.1,0.8-0.1,1.2&#10;&#9;&#9;C432,206.4,431.6,206.5,431.2,206.6z"/>
	<path class="st9_coding-2-91" d="M424.4,253.6c0.1-2.3,0.2-4.7,0.2-7.2c0-3.3-0.1-6.6-0.5-10c-0.2-3-0.7-5.9-1.4-8.8c-0.7-3.2-1.6-6.3-2.8-9.3&#10;&#9;&#9;c-0.3-0.8-0.6-1.6-1-2.4c-0.2-0.4-0.1-0.3-0.1-0.3l-0.4-0.6c-0.8-1.5-1.6-3-2.5-4.5c-3.1-5-7.3-9.4-12.2-12.7&#10;&#9;&#9;c-0.4,10.7,1.6,21.4,5.8,31.4c0.2,0.6,0.5,1.2,0.7,1.8l0.7,1.5l0.7,1.4c0.4,0.7,0.7,1.4,1.1,2.1c1.5,2.8,3.1,5.4,4.8,8.1&#10;&#9;&#9;C419.8,247.2,422.1,250.4,424.4,253.6z M405.3,210.4c0.1-0.6,0.2-1.2,0.3-1.8l0,0c0.1,0.4,0.3,0.8,0.6,1.1&#10;&#9;&#9;C405.8,209.8,405.5,210.1,405.3,210.4L405.3,210.4z"/>
	<path class="st9_coding-2-91" d="M424.5,254.7c-0.7-1.3-1.4-2.6-2.3-4c-1.1-1.8-2.2-3.5-3.5-5.2c-1.1-1.5-2.3-3-3.6-4.3&#10;&#9;&#9;c-1.4-1.5-2.9-2.9-4.5-4.1l-1.3-1c-0.2-0.1-0.2-0.1-0.1-0.1l-0.4-0.2c-0.9-0.6-1.8-1.1-2.8-1.6c-3.3-1.7-7-2.7-10.7-2.9&#10;&#9;&#9;c3.3,5.9,7.8,11,13.3,15l1,0.7l0.8,0.6l0.9,0.5l1.3,0.8c1.7,1,3.4,1.9,5.2,2.8C420,252.8,422.3,253.8,424.5,254.7z M400.2,237.7&#10;&#9;&#9;c-0.1-0.4-0.3-0.7-0.4-1.1l0,0c0.2,0.2,0.4,0.3,0.7,0.4C400.4,237.2,400.3,237.4,400.2,237.7L400.2,237.7z"/>
	<path class="st9_coding-2-91" d="M424,253.3c1.4-1.9,2.7-3.8,4.1-6c1.8-2.8,3.5-5.7,5-8.6c1.4-2.6,2.6-5.4,3.6-8.2c1.1-3.1,2-6.2,2.7-9.4&#10;&#9;&#9;c0.2-0.8,0.3-1.7,0.5-2.5c0-0.4,0.1-0.4,0.1-0.3v-0.7c0.1-1.7,0.3-3.4,0.3-5.1c0.1-5.9-1.1-11.8-3.4-17.3&#10;&#9;&#9;c-6.1,8.9-10.2,18.9-12.1,29.5c-0.1,0.6-0.2,1.3-0.3,1.9c-0.2,1-0.2,1.2-0.2,1.6l-0.2,1.6c-0.1,0.8-0.2,1.6-0.2,2.4&#10;&#9;&#9;c-0.2,3.1-0.4,6.2-0.4,9.4C423.5,245.5,423.7,249.4,424,253.3z"/>
	<path class="st9_coding-2-91" d="M424.4,253.6c0.1-2.3,0.2-4.7,0.2-7.2c0-3.3-0.1-6.6-0.5-10c-0.2-3-0.7-5.9-1.4-8.8c-0.7-3.2-1.6-6.3-2.8-9.3&#10;&#9;&#9;c-0.3-0.8-0.6-1.6-1-2.4c-0.2-0.4-0.1-0.3-0.1-0.3l-0.4-0.6c-0.8-1.5-1.6-3-2.5-4.5c-3.1-5-7.3-9.4-12.2-12.7&#10;&#9;&#9;c-0.4,10.7,1.6,21.4,5.8,31.4c0.2,0.6,0.5,1.2,0.7,1.8l0.7,1.5l0.7,1.4c0.4,0.7,0.7,1.4,1.1,2.1c1.5,2.8,3.1,5.4,4.8,8.1&#10;&#9;&#9;C419.8,247.2,422.1,250.4,424.4,253.6z"/>
	<path class="st9_coding-2-91" d="M424.5,254.7c-0.7-1.3-1.4-2.6-2.3-4c-1.1-1.8-2.2-3.5-3.5-5.2c-1.1-1.5-2.3-3-3.6-4.3&#10;&#9;&#9;c-1.4-1.5-2.9-2.9-4.5-4.1l-1.3-1c-0.2-0.1-0.2-0.1-0.1-0.1l-0.4-0.2c-0.9-0.6-1.8-1.1-2.8-1.6c-3.3-1.7-7-2.7-10.7-2.9&#10;&#9;&#9;c3.3,5.9,7.8,11,13.3,15l1,0.7l0.8,0.6l0.9,0.5l1.3,0.8c1.7,1,3.4,1.9,5.2,2.8C420,252.8,422.3,253.8,424.5,254.7z"/>
</g>
<g id="Code_coding-2-91">
	<path class="st10_coding-2-91" d="M288.7,205.9l36.4-21.6c1.5-0.9,3.4-0.9,4.9,0l28.8,17.1c2.3,1.4,3,4.3,1.7,6.6c-0.4,0.7-1,1.3-1.7,1.7&#10;&#9;&#9;l-34.8,19.7c-1.5,0.8-3.2,0.8-4.7,0l-30.4-17.1c-1.8-1-2.4-3.2-1.5-5c0,0,0,0,0,0C287.6,206.7,288.1,206.3,288.7,205.9z"/>
	<polygon class="st10_coding-2-91" points="286.9,209 286.9,203.1 291,204.4 289.8,209.2 &#9;"/>
	<polygon class="st10_coding-2-91" points="361,205.1 361,199.5 357.6,201.2 359.2,204.4 &#9;"/>
	<path class="st11_coding-2-91" d="M288.7,199.9l36.4-21.6c1.5-0.9,3.4-0.9,4.9,0l28.8,17.1c2.3,1.4,3,4.3,1.6,6.6c-0.4,0.7-1,1.3-1.7,1.7&#10;&#9;&#9;l-34.8,19.7c-1.5,0.8-3.2,0.8-4.7,0l-30.4-17.1c-1.8-1-2.4-3.2-1.4-5C287.6,200.7,288.1,200.3,288.7,199.9z"/>
	<polygon class="st6_coding-2-91" points="319.8,192.4 323.9,190.6 332.5,207.3 328.4,209 &#9;"/>
	<path class="st6_coding-2-91" d="M339.8,196.6c1.9,0,3.7,0.3,5.5,1c1.4,0.6,2.2,1.4,2.2,2.4s-0.8,1.8-2.3,2.4c-3.6,1.3-7.5,1.2-11-0.1&#10;&#9;&#9;c-1.4-0.6-2.1-1.4-2.2-2.4s0.7-1.8,2.3-2.4C336,196.8,337.9,196.5,339.8,196.6z M342.9,200c0-0.4-0.3-0.7-1-1&#10;&#9;&#9;c-0.7-0.3-1.5-0.5-2.3-0.5c-0.8,0-1.6,0.1-2.3,0.4c-0.7,0.3-1,0.6-1,1s0.3,0.7,1,1c0.7,0.3,1.5,0.5,2.3,0.5c0.8,0,1.6-0.1,2.4-0.4&#10;&#9;&#9;C342.7,200.7,343,200.4,342.9,200"/>
	<path class="st6_coding-2-91" d="M320.5,199.7c0,1-0.8,1.8-2.3,2.4c-3.6,1.3-7.5,1.2-11-0.1c-1.4-0.7-2.1-1.4-2.2-2.4s0.8-1.8,2.3-2.4&#10;&#9;&#9;c3.6-1.3,7.5-1.2,11,0.1C319.8,198,320.5,198.8,320.5,199.7z M310.4,200.7c0.7,0.3,1.5,0.5,2.3,0.5c0.8,0,1.6-0.1,2.3-0.4&#10;&#9;&#9;c0.7-0.3,1-0.6,1-1s-0.3-0.7-1-1c-1.5-0.6-3.1-0.6-4.6-0.1c-0.7,0.3-1,0.6-1,1S309.7,200.4,310.4,200.7"/>
	<path class="st10_coding-2-91" d="M300.5,201.6l36.4-21.6c1.5-0.9,3.4-0.9,4.9,0l28.8,17.1c2.3,1.4,3,4.3,1.7,6.6c-0.4,0.7-1,1.3-1.8,1.7&#10;&#9;&#9;l-34.9,19.7c-1.5,0.8-3.2,0.8-4.7,0L300.6,208c-1.8-1-2.4-3.2-1.4-5C299.5,202.4,299.9,202,300.5,201.6z"/>
	<polygon class="st10_coding-2-91" points="298.7,204.8 298.7,198.8 302.8,200.1 301.6,204.9 &#9;"/>
	<polygon class="st10_coding-2-91" points="372.9,200.8 372.9,195.2 369.4,196.9 371,200.1 &#9;"/>
	<path class="st11_coding-2-91" d="M300.5,195.6l36.4-21.6c1.5-0.9,3.4-0.9,4.9,0l28.8,17.1c2.3,1.4,3,4.3,1.7,6.6c-0.4,0.7-1,1.3-1.8,1.7&#10;&#9;&#9;l-34.9,19.7c-1.5,0.8-3.2,0.8-4.7,0L300.6,202c-1.8-1-2.4-3.2-1.4-5c0,0,0,0,0,0C299.5,196.4,299.9,196,300.5,195.6z"/>
	<path class="st6_coding-2-91" d="M323.2,196.6c1.4,0,2.9,0.3,4.2,0.8c1.2,0.6,1.8,1.2,1.7,1.9s-0.7,1.4-2,1.9l-2.6,1.1l4.1,1.9l-2.7,1.1&#10;&#9;&#9;l-12.4-5.6l5.2-2.2C320.2,196.9,321.7,196.6,323.2,196.6z M325.6,199.4c0-0.3-0.2-0.6-0.8-0.8c-0.6-0.3-1.2-0.4-1.8-0.4&#10;&#9;&#9;c-0.6,0-1.3,0.1-1.9,0.3l-2.5,1.1l3.6,1.6l2.5-1C325.3,200.1,325.5,199.8,325.6,199.4"/>
	<polygon class="st6_coding-2-91" points="336.4,190 348.9,195.7 346.2,196.8 341.1,194.5 335.8,196.8 340.9,199.1 338.2,200.2 325.7,194.6 &#10;&#9;&#9;328.4,193.4 333.4,195.7 338.7,193.4 333.7,191.1 &#9;"/>
	<path class="st6_coding-2-91" d="M349.2,185.6c1.4,0,2.9,0.3,4.2,0.8c1.2,0.5,1.8,1.2,1.7,1.9s-0.7,1.4-2,1.9l-2.6,1.1l4.1,1.9l-2.6,1.1&#10;&#9;&#9;l-12.5-5.7l5.2-2.2C346.1,185.9,347.6,185.6,349.2,185.6z M351.5,188.4c0-0.3-0.2-0.6-0.7-0.8c-0.6-0.2-1.2-0.4-1.8-0.4&#10;&#9;&#9;c-0.6,0-1.3,0.1-1.9,0.3l-2.5,1.1l3.6,1.6l2.5-1.1C351.2,189,351.5,188.8,351.5,188.4"/>
</g>
<g id="C__coding-2-91">
	<path class="st12_coding-2-91" d="M60.9,195.5l-31.7,17.9v35.2c4.8-2.6,23.2-13,31.7-17.8L60.9,195.5z"/>
	<path class="st12_coding-2-91" d="M60.9,239.8l-31.7,18V293c4.8-2.6,23.2-13,31.7-17.8L60.9,239.8z"/>
	<path class="st8_coding-2-91" d="M41.3,217.4c0.3-0.1,0.7-0.1,1,0c0.2,0.1,0.5,0.2,0.7,0.3c0.2,0.1,0.3,0.2,0.4,0.4l0.1,0.2l-1.2,2.4l-0.1-0.1&#10;&#9;&#9;c-0.1-0.1-0.2-0.2-0.3-0.3c-0.1-0.1-0.3-0.2-0.5-0.3c-0.2,0-0.5,0-0.7,0c-0.3,0-0.6,0.1-0.9,0.3c-0.9,0.5-1.6,1.3-2,2.2&#10;&#9;&#9;c-0.5,1-0.8,2.1-0.8,3.2c-0.1,0.9,0.2,1.7,0.8,2.4c0.6,0.5,1.4,0.5,2,0.1c0.3-0.2,0.6-0.4,0.9-0.6c0.3-0.2,0.5-0.5,0.7-0.8&#10;&#9;&#9;c0.2-0.3,0.3-0.5,0.5-0.8c0.1-0.2,0.2-0.4,0.3-0.6l0.1-0.2l1.1,1.1l-0.1,0.3c-0.1,0.1-0.2,0.4-0.4,0.8c-0.2,0.4-0.5,0.7-0.7,1.1&#10;&#9;&#9;c-0.3,0.4-0.6,0.8-1,1.1c-0.4,0.4-0.8,0.7-1.3,0.9c-1,0.7-2.4,0.6-3.3-0.2c-1-0.9-1.5-2.3-1.4-3.7c0-1.8,0.5-3.5,1.4-5.1&#10;&#9;&#9;c0.7-1.5,1.8-2.8,3.3-3.7C40.4,217.7,40.8,217.5,41.3,217.4z"/>
	<path class="st8_coding-2-91" d="M46.6,225.9v-3l-2.1,1v-2.1l2.1-1.1v-3L48,217v3l2.1-1.1v2.2l-2.1,1.1v3L46.6,225.9z"/>
	<path class="st8_coding-2-91" d="M53,222.8v-3.1l-2.1,1.1v-2.2l2.1-1.1v-3.1l1.4-0.7v3.1l2.1-1.1v2.4l-2.1,1v3.1L53,222.8z"/>
	<path class="st8_coding-2-91" d="M40.8,265.3c0.3-0.1,0.6,0,0.8,0.1c0.2,0.1,0.4,0.2,0.6,0.3c0.1,0.1,0.3,0.2,0.3,0.4l0.1,0.2l-1,2.2l-0.1-0.2&#10;&#9;&#9;c-0.1-0.1-0.1-0.2-0.2-0.3c-0.1-0.1-0.2-0.2-0.4-0.3c-0.2,0-0.4,0-0.5,0c-0.2,0-0.5,0.1-0.7,0.2c-0.7,0.5-1.3,1.3-1.6,2.1&#10;&#9;&#9;c-0.4,1-0.7,2.1-0.7,3.1c-0.1,0.8,0.1,1.7,0.7,2.4c0.4,0.5,1.1,0.5,1.6,0.1c0.3-0.2,0.5-0.4,0.7-0.6c0.2-0.2,0.4-0.5,0.6-0.8&#10;&#9;&#9;c0.2-0.2,0.3-0.5,0.4-0.7c0.1-0.2,0.2-0.4,0.2-0.6l0.1-0.2l0.9,1.1l-0.1,0.3c0,0.1-0.2,0.4-0.3,0.8c-0.2,0.4-0.4,0.7-0.6,1.1&#10;&#9;&#9;c-0.2,0.4-0.5,0.7-0.8,1c-0.3,0.3-0.7,0.6-1,0.9c-0.8,0.6-2,0.5-2.7-0.2c-0.8-1-1.1-2.3-1-3.6c0-1.7,0.4-3.4,1.1-5&#10;&#9;&#9;c0.5-1.4,1.5-2.6,2.7-3.5C40.1,265.5,40.4,265.4,40.8,265.3z"/>
	<path class="st8_coding-2-91" d="M46.5,269.3c-0.3-0.1-0.6-0.1-0.8-0.1c-0.3,0-0.7,0-1,0c-0.4,0-0.7-0.3-0.9-0.6c-0.3-0.5-0.4-1.1-0.3-1.7&#10;&#9;&#9;c0-1,0.3-2,0.7-2.9c0.4-0.9,1-1.6,1.8-2.2c0.2-0.2,0.5-0.3,0.8-0.4c0.2-0.1,0.4-0.1,0.7,0c0.2,0,0.3,0.1,0.5,0.2&#10;&#9;&#9;c0.1,0.1,0.2,0.2,0.3,0.2l0.1,0.1l-0.9,2.2l-0.2-0.2c-0.1-0.1-0.3-0.2-0.4-0.2c-0.3-0.1-0.6,0-0.8,0.2c-0.3,0.2-0.5,0.5-0.7,0.8&#10;&#9;&#9;c-0.2,0.3-0.3,0.7-0.3,1.1c0,0.4,0.1,0.7,0.3,0.8c0.3,0.1,0.6,0.1,0.9,0.1c0.3,0,0.7,0,1,0c0.4,0,0.7,0.3,0.8,0.6&#10;&#9;&#9;c0.3,0.6,0.4,1.2,0.3,1.8c0,1.1-0.3,2.2-0.7,3.2c-0.4,0.9-1.1,1.7-2,2.2c-0.3,0.2-0.6,0.3-0.9,0.3c-0.2,0.1-0.5,0.1-0.8,0&#10;&#9;&#9;c-0.2-0.1-0.4-0.2-0.5-0.3c-0.1-0.1-0.2-0.2-0.3-0.3l-0.1-0.1l0.9-2.1l0.2,0.2c0.4,0.3,1,0.3,1.4,0.1c0.4-0.2,0.7-0.5,0.8-0.9&#10;&#9;&#9;c0.2-0.4,0.3-0.9,0.3-1.3C46.9,269.7,46.8,269.4,46.5,269.3z"/>
	<path class="st8_coding-2-91" d="M52.5,265.7c-0.3-0.1-0.6-0.2-0.8-0.1c-0.3,0-0.7,0-1,0c-0.4-0.1-0.7-0.3-0.9-0.6c-0.3-0.6-0.4-1.2-0.3-1.8&#10;&#9;&#9;c0-1,0.2-2.1,0.7-3c0.4-0.9,1-1.7,1.8-2.2c0.3-0.2,0.5-0.3,0.8-0.4c0.2-0.1,0.4-0.1,0.7,0c0.2,0,0.3,0.1,0.5,0.2&#10;&#9;&#9;c0.1,0.1,0.2,0.2,0.3,0.3l0.1,0.1l-0.9,2.3l-0.2-0.2c-0.1-0.1-0.3-0.2-0.4-0.2c-0.2-0.1-0.5,0-0.7,0.1c-0.3,0.2-0.5,0.5-0.7,0.8&#10;&#9;&#9;c-0.2,0.3-0.3,0.7-0.3,1.1c0,0.4,0.1,0.7,0.3,0.8c0.3,0.1,0.6,0.1,0.8,0.1c0.3,0,0.7,0,1,0c0.4,0,0.7,0.3,0.9,0.6&#10;&#9;&#9;c0.3,0.6,0.4,1.2,0.3,1.9c0,1.1-0.3,2.3-0.7,3.3c-0.4,0.9-1.1,1.7-1.9,2.2c-0.3,0.2-0.6,0.3-0.9,0.3c-0.2,0-0.5,0-0.7-0.1&#10;&#9;&#9;c-0.2-0.1-0.3-0.2-0.5-0.3c-0.1-0.1-0.2-0.2-0.3-0.3l-0.1-0.2l0.9-2.1l0.2,0.3c0.2,0.1,0.3,0.2,0.5,0.3c0.3,0.1,0.6,0,0.9-0.1&#10;&#9;&#9;c0.4-0.2,0.7-0.6,0.8-1c0.2-0.4,0.3-0.9,0.3-1.4C52.8,266.1,52.7,265.8,52.5,265.7z"/>
</g>
<g id="Character_coding-2-91">
	
		<ellipse transform="matrix(8.211244e-02 -0.9966 0.9966 8.211244e-02 7.1331 316.2404)" class="st6_coding-2-91" cx="175.3" cy="154.2" rx="27.9" ry="19.6"/>
	<path class="st13_coding-2-91" d="M151.6,151.8c0-0.1,0.1-0.2,0.2-0.3c-0.5-0.5-0.7-1.1-0.7-1.8c0-0.4,0.3-0.8,0.6-1.1&#10;&#9;&#9;c-0.4-0.5-0.4-1.2,0.1-1.6c0.3-0.2,0.6-0.3,1-0.3c1.7,0.3,2.8,2.5,3.7,3.8c0.7,1,1.3,1.9,1.9,3c0.1-1.4,0.3-2.9,0.4-4.2&#10;&#9;&#9;s2.2-1.4,2.2,0c-0.1,2.2,0.1,4.3,0.7,6.4c0.2,0.1,0.4,0.3,0.6,0.4c6.2,6.5,14,11.3,22.6,14c1.1,0.4,1.7,1.5,1.3,2.6&#10;&#9;&#9;c-0.2,0.7-0.8,1.2-1.6,1.4c0,0.8-0.6,1.6-1.4,1.8c-0.1,0.6-0.5,1.2-1.1,1.5l1.4,0.6c2.4,1,1.3,4.9-1.1,3.9c-9-3.8-16.9-9.7-23-17.4&#10;&#9;&#9;c-0.7-0.7-1.4-1.4-2.1-2c-1.1-1.1-6.2-6.2-4.9-8.4C151.9,153.4,151.2,152.8,151.6,151.8z"/>
	<path class="st13_coding-2-91" d="M187.2,127.8c2.4,1,4.3,6.2,4.1,7.3l-1.9-1l-0.3-0.4C188.7,131.6,188.1,129.6,187.2,127.8z"/>
	<path class="st13_coding-2-91" d="M186.9,132c0.1-0.1,0.3-0.2,0.4-0.2l0.2-0.1c0.9-0.7,2.4,0.2,3.2,0.7c1.1,0.6,2.1,1.3,3.1,2.1&#10;&#9;&#9;c0.4,0.6,0.7,1.3,0.9,2c0.4,0.9,0.7,1.7,1.1,2.6c0.8,1.8,1.8,3.5,2.8,5.1c2,3.2,4.5,6.2,7.2,8.8c1.3,1.2-0.7,3.1-1.9,1.9l-0.9-0.9&#10;&#9;&#9;c-0.4,0.3-0.9,0.3-1.3,0c-0.2-0.2-0.4-0.3-0.6-0.5l-0.3-0.2c-0.3,0.7-1.1,1-1.9,0.7c-0.1-0.1-0.3-0.1-0.4-0.2l-0.9-1&#10;&#9;&#9;c-0.3-0.1-0.5-0.3-0.7-0.6c0,0-0.1,1.9-0.2,1.8c-1.5-1.6-3.3-5.9-4.7-8.5c0-0.1,0-0.2-0.1-0.4c-1.2-1.9-1-3-1.1-5.1&#10;&#9;&#9;c0-1.2-0.1-2.5-0.3-3.7l-2.4-1.9c-0.6-0.4-1.2-1.1-1.1-1.8C186.9,132.3,186.9,132.1,186.9,132z"/>
	<path class="st12_coding-2-91" d="M177.8,166.3c8.7,2.6,10.1,1.6,14.3,1.4s8.4-5.9,8.4-5.9s1-12.8,8.7-2.8c5.7,7.5,7.9,29.2,8.6,39.8&#10;&#9;&#9;c-2.8,2.2-6.6,3.1-10.2,3.6c-2.3,0.4-4.7,0.6-7.1,0.6c-1.4,0-2.9-0.3-4.2-0.9l-4.1-18.8c-6.5,0.3-13-1.5-18.3-5.3L177.8,166.3z"/>
	<path class="st13_coding-2-91" d="M196.4,150.9c0,0-5.6,10.7-0.1,13.7s9.8-2,10.3-3.3S207,150.1,196.4,150.9z"/>
	<path class="st8_coding-2-91" d="M196,149.3c2.8-1.8,6.3-2.4,9.6-1.4c2.8,0.5,5.4,1.9,7.4,3.9c0.7-0.5,1.5-0.8,2.4-0.8c2.1-0.2,4.1,1.1,4.9,3.1&#10;&#9;&#9;c0.7,1.9,0,3.9-1.7,5c-1.3,0.7-2.7,0.8-4.1,0.4v0.2c-0.2,2,1.7,3,2.5,4.7c0.4,0.8,0.5,1.7,0.3,2.5c-0.2,0.8-1.1,1.8-1,2.6&#10;&#9;&#9;c0.1,0.7,0.5,1.3,0.9,1.8c0.4,0.6,0.7,1.2,1,1.9c-4,2.2-9,2.1-13.4,1.2c-4.8-0.8-9.2-3.2-12.5-6.7c0.2-0.4,0.5-0.8,0.8-1.2&#10;&#9;&#9;c0.7-0.5,1.5-0.9,2.4-1.3c1.2-0.7,0-2.8,0-3.9c0.1-1.9,1.5-2.7,3.1-3.4c1.1-0.5,1.2-1.2,1.2-2.4c0.1-0.9-0.1-1.9-0.6-2.7&#10;&#9;&#9;c-0.3,0.1-0.7,0-1-0.2c-0.6-0.4-1.2-0.6-1.9-0.8c-0.7-0.3-1-1-0.8-1.7C195.5,149.9,195.7,149.6,196,149.3z"/>
	<path class="st8_coding-2-91" d="M200.2,153.5c-1.8-0.4-3.6-1-5.2-1.8c0-0.2-0.5-6.8,11.3-4.5s6.2,16.4,6.2,16.4"/>
	<path class="st13_coding-2-91" d="M213.1,300.5c1.3-0.2,2.4-0.8,3.4-1.6c0.6-1.1,0.9-2.4,0.7-3.7v-3.6c0.1-0.1,0.2-0.3,0.2-0.4&#10;&#9;&#9;c0.1-1,0.1-1.9,0-2.9l4.9-0.5c0.8,3.1,1.5,6.2,2,9.3c-0.1,1-4.8,7.3-7.2,7.8s-9-1.6-9.5-2.5v-0.1&#10;&#9;&#9;C209.5,301.8,211.3,301.2,213.1,300.5z"/>
	<path class="st13_coding-2-91" d="M179.2,283.1c1.6-0.3,8.3,0.8,8.3,0.8s0.9-5.5,0.8-5.7l7,0.5c0,0,0.9,10.1,0.9,11.5c0,2.5-3,3.2-3.7,3.1&#10;&#9;&#9;c-0.5-0.2-0.9-0.4-1.4-0.6c0.3-1.3,0.4-2.6,0.4-3.9c0.1-0.5-0.2-1-0.7-1.2c-1.3-0.2-2.7-0.1-4,0.4c-1.2,0.2-2.5,0.5-3.7,0.8&#10;&#9;&#9;c-2.8-1.4-5.1-2.8-5.3-3.4C177.3,283.9,176.7,283.6,179.2,283.1z"/>
	<path class="st8_coding-2-91" d="M176.9,283.5l0.2-0.2c0.5-0.5,1.9-0.5,2.6-0.5c2.7,0,5.3,0.4,7.9,1c0,0-6.3-0.9-6.6,0.3&#10;&#9;&#9;c-0.2,0.9,0,1.9,0.6,2.6c2.6,2.4,6.8-0.2,9.3-1.4l4.8-2.1l0.3,3.9c0.2,1.8,0.2,3.6,0,5.4c-0.3,0.5-3.2,2-3.8,1.7s-2.5-1.4-2.5-1.4&#10;&#9;&#9;l0.4-4.7c0,0-3.9,1.7-5.8,1.2C183,289,175.2,285.7,176.9,283.5z"/>
	<path class="st8_coding-2-91" d="M219.9,297.3c0,0-2.6,8-3.5,8.5s-10.8-2.6-9.3-4.5c0.9-1.2,6.9-1.2,7.4-1.4c0,0-3.1,1-3.1,1.5s3.9,2.3,4.2,1.9&#10;&#9;&#9;s4.5-7.4,4.5-7.4l4-1.4l3.3,7.4l-2.8,1.2c0,0-0.9,2.2-1.1,2.2c-1-1.3-1.8-2.7-2.6-4.2c-0.2,1-0.5,2-1,2.9c-0.4,0.3-3.7,3-5.2,0.9&#10;&#9;&#9;l2.8-3.1"/>
	<path class="st9_coding-2-91" d="M199.4,281.4c-6.2,1.2-12.8,0.1-17.4-4.1c-0.1-10.3-1.1-19.6-0.8-30c0.5-16.8,2.9-33.4,14.8-46.5l21.5-3.3&#10;&#9;&#9;c8.7,16.6,10.5,92.7,10.5,92.7s-10.9,7-19.3,3.6l-3.3-63.4c0,0-5.7,6.7-6.7,10.5C198,243.6,199.5,268.6,199.4,281.4z"/>
</g>
</svg>