<svg transform="scale(1)" version="1.1" id="Layer_1" xmlns="http://www.w3.org/2000/svg" xmlns:xlink="http://www.w3.org/1999/xlink" x="0px" y="0px" viewBox="0 0 500 500" xml:space="preserve" class="show_show__wrapper__graphic__5Waiy "><title>React</title><style type="text/css">
	.st0{fill:#5E5294;}
	.st1{opacity:0.32;fill:url(#SVGID_1_);enable-background:new    ;}
	.st2{fill:#7F1D18;}
	.st3{fill:#AA3529;}
	.st4{fill:#F9B246;}
	.st5{fill:#E98669;}
	.st6{fill:#CD725F;}
	.st7{fill:#FFD7CB;}
	.st8{opacity:0.32;fill:url(#SVGID_00000032630571784688716170000004146299465966059156_);enable-background:new    ;}
	.st9{fill:#68E1FD;}
	.st10{fill:#5ED18D;}
	.st11{fill:#FFFFFF;}
</style><path class="st0" id="field" d="M33.3,254.6L231.2,142c9.8-5.6,21.9-5.5,31.7,0.2l204,118.8c8.4,4.9,11.3,15.7,6.4,24.1
	c-1.6,2.7-3.8,4.9-6.5,6.4L276.4,400.7c-13.1,7.5-29.3,7.5-42.4,0L33.2,285.2c-8.4-4.8-11.4-15.6-6.5-24.1
	C28.3,258.4,30.6,256.1,33.3,254.6L33.3,254.6z"></path><g id="mail-box"><linearGradient id="SVGID_1_" gradientUnits="userSpaceOnUse" x1="219.9212" y1="-472.3599" x2="295.9413" y2="-543.8899" gradientTransform="matrix(1 0 0 1 0 843.16)"><stop offset="0" style="stop-color: rgb(127, 29, 24); stop-opacity: 0;"></stop><stop offset="0.99" style="stop-color: rgb(127, 29, 24);"></stop></linearGradient><path class="st1" d="M242.5,380.3l10.5-7.2l76.6-63.3l-18.1-7.8c-10.9,2.9-30.4,11.4-40.5,16c-15,6.9-30.1,13.1-45.4,19.2
		c-8.5,3.4-17,6.7-25.5,10C215.3,356.8,229,368.4,242.5,380.3z"></path><polyline class="st2" points="319.9,318.5 304.6,311.8 304.6,194.8 324.7,187.6 	"></polyline><polyline class="st3" points="329.5,172.4 329.5,310.1 319.9,318.5 319.9,185.9 	"></polyline><path class="st4" d="M238.6,201.1v-50.9c0,0-1.4-9,14.7-17.1s69.4-39.2,69.4-39.2s26.1-4.7,40.2,33.5c2.5,6.4,4,13.2,4.7,20v39.9
		l-77.4,42.9L238.6,201.1z"></path><path class="st5" d="M241.6,197.4v-48c0,0,1.7-13.4,15.4-8.7c13.7,4.7,28.1,23.1,31.1,40.2v43.2L243.3,198"></path><path class="st3" d="M306.8,105.9L306.8,105.9c1.2,0,2.2,1,2.2,2.2v86.1c0,1.2-1,2.2-2.2,2.2l0,0c-1.2,0-2.2-1-2.2-2.2v-86.1
		C304.6,106.9,305.6,105.9,306.8,105.9z"></path><path class="st3" d="M309,105.9c0,0,29.8-3,31.8-2.7S309,135.7,309,135.7"></path><path class="st4" d="M240.9,201.9l-30.2,36.5c0,0-13.7,21.1,8.7,33.2s43.6-13.1,43.6-13.1l25.8-29.4L240.9,201.9z"></path><path class="st3" d="M238.2,201.1l-30.2,36.5c0,0-13.8,21.1,8.7,33.2s43.6-13.1,43.6-13.1l25.8-29.5L238.2,201.1z"></path><path class="st6" d="M282.4,164.8c-6.1-11.3-15.9-21-25.3-24.3c-13.8-4.7-15.4,8.7-15.4,8.7v48.1
		C256.8,185.2,264.1,180,282.4,164.8z"></path><ellipse class="st7" transform="matrix(0.4424 -0.8968 0.8968 0.4424 43.253 393.4767)" cx="338.1" cy="162" rx="21.5" ry="17.2"></ellipse><path class="st3" d="M344.7,150.1c1.9,1.5,3,3.8,2.8,6.2c0.1,2.2-0.4,4.4-1.5,6.4c-0.7,1.7-2.1,3.2-3.8,4c-0.8,0.5-1.8,0.3-2.3-0.5
		c-0.5,1.1-1.3,2-2.4,2.5c-0.9,0.5-2.1,0.3-2.8-0.5c-0.9-1.1-1.4-2.6-1.3-4c-0.1-1.8,0.3-3.6,1.2-5.1c0.6-1.4,1.7-2.4,3-3.1
		c0.7-0.3,1.5-0.3,2.1,0.1l0.1-0.8l2.5-1L342,162v1.4c0,0.4,0.2,0.6,0.5,0.5c0.9-0.5,1.5-1.3,1.8-2.3c0.6-1.3,0.9-2.7,0.8-4.1
		c0.1-1.8-0.7-3.6-2.1-4.7c-1.4-0.9-3.3-1-4.8-0.2c-2.2,1-4,2.7-5.1,4.8c-1.3,2.3-2,4.9-1.9,7.5c-0.1,2.1,0.7,4.1,2.1,5.5
		c1.3,1.3,3.2,1.4,5.6,0.4c2.1-1,4-2.5,5.6-4.2l1,2.4c-1.8,2-4,3.7-6.5,4.8c-3.1,1.3-5.6,1.1-7.5-0.4c-1.9-1.6-2.9-4-3-7.3
		c-0.1-3.4,0.9-6.8,2.7-9.7c1.6-2.8,4-5,6.9-6.3C340.7,148.8,342.9,148.9,344.7,150.1z M339.2,163.7c0.4-0.9,0.6-1.8,0.6-2.8
		c0.1-0.6-0.2-1.2-0.6-1.6c-0.3-0.3-0.8-0.4-1.3-0.2c-0.6,0.3-1,0.9-1.3,1.5c-0.4,0.8-0.5,1.7-0.5,2.6c0,0.7,0.1,1.3,0.4,1.9
		c0.2,0.4,0.6,0.5,1,0.4C338.4,165.1,338.9,164.5,339.2,163.7"></path></g><g id="plant"><linearGradient id="SVGID_00000006710015140955557880000003484562468966207107_" gradientUnits="userSpaceOnUse" x1="370.7257" y1="-539.3746" x2="398.7857" y2="-565.7746" gradientTransform="matrix(1 0 0 1 0 843.16)"><stop offset="0" style="stop-color: rgb(127, 29, 24); stop-opacity: 0;"></stop><stop offset="0.99" style="stop-color: rgb(127, 29, 24);"></stop></linearGradient><path d="
		M365.1,309.6c4,1.3,8,2.4,12.1,3.2c2.5,0.4,5.1,0.7,7.6,0.9l4.3-2.9l29.5-21.9l-22.5-7.5L342.7,300
		C349.3,304.9,357.4,307.3,365.1,309.6z" style="opacity: 0.32; fill: url(&quot;#SVGID_00000006710015140955557880000003484562468966207107_&quot;);"></path><path class="st9" d="M406.7,265.2c-5.3-0.5-10.9-2.1-14.8-5.7v15.8c0,9,7.3,16.4,16.4,16.4l0,0l0,0c9,0,16.4-7.3,16.4-16.4l0,0l0,0
		v-16C419,261.5,412.7,265.7,406.7,265.2z"></path><ellipse class="st10" cx="408.2" cy="259.4" rx="16.4" ry="8.7"></ellipse><path class="st10" d="M408.2,260.8c0,0-11.1-1.6-14.1-19.6C394.2,241.2,403.6,246.4,408.2,260.8z"></path><path class="st10" d="M409.9,258.5c0,0-12.8-22.9,0-38.2C413.8,232.7,413.8,246.1,409.9,258.5z"></path><path class="st10" d="M408.2,244.1c0,0-11.1-1.6-14.1-19.6C394.2,224.5,403.6,229.8,408.2,244.1z"></path><path class="st10" d="M409.6,251.5c0,0-2.8-10.9,12.7-20.6C422.2,230.9,421.1,241.8,409.6,251.5z"></path><ellipse class="st2" cx="408.2" cy="259.4" rx="16.4" ry="8.7"></ellipse><path class="st10" d="M408.2,260.8c0,0-11.1-1.6-14.1-19.6C394.2,241.2,403.6,246.4,408.2,260.8z"></path><path class="st10" d="M409.9,258.5c0,0-12.8-22.9,0-38.2C413.8,232.7,413.8,246.1,409.9,258.5z"></path><path class="st10" d="M408.2,244.1c0,0-11.1-1.6-14.1-19.6C394.2,224.5,403.6,229.8,408.2,244.1z"></path><path class="st10" d="M409.6,251.5c0,0-2.8-10.9,12.7-20.6C422.2,230.9,421.1,241.8,409.6,251.5z"></path></g><g id="mails"><polygon class="st9" points="218,188.4 218,231.1 272.6,200.5 272.6,156.9 	"></polygon><polygon class="st9" points="145.4,200.5 205.5,208.7 195.8,234.6 134.7,225.8 	"></polygon><path class="st9" d="M85.7,262.4c1.4,0.9,11.6,10,11.6,10l30.1-15.1l-12.5-11.1L85.7,262.4z"></path><polygon class="st9" points="120.4,296.1 138.4,311.4 167.6,268.9 148.6,253.6 	"></polygon><polygon class="st9" points="172.2,289.7 190.7,309.1 228.2,259.3 207.9,241 	"></polygon><polygon class="st11" points="218,188.4 249.6,194 272.6,156.9 	"></polygon><polygon class="st11" points="145.4,200.5 167.6,215.9 205.5,208.7 	"></polygon><polygon class="st11" points="85.7,262.4 107.9,259.3 114.8,246.2 	"></polygon><polygon class="st11" points="120.4,296.1 144,282.5 148.6,253.6 	"></polygon><polygon class="st11" points="172.2,289.7 200.2,274.9 207.9,241 	"></polygon></g></svg>