<svg version="1.1" id="Layer_1" xmlns="http://www.w3.org/2000/svg" xmlns:xlink="http://www.w3.org/1999/xlink" x="0px" y="0px" viewBox="0 0 500 500" style="width: 151px;" xml:space="preserve" data-imageid="conference-3-59" imageName="Conference 3" class="illustrations_image">
<style type="text/css">
	.st0_conference-3-59{fill:#55823D;}
	.st1_conference-3-59{fill:url(#SVGID_1_);}
	.st2_conference-3-59{fill:url(#SVGID_00000125586156031729214430000006017235866001848720_);}
	.st3_conference-3-59{fill:url(#SVGID_00000144313637457041134610000003540463644390075071_);}
	.st4_conference-3-59{fill:url(#SVGID_00000170988334409005377300000001360207059676439478_);}
	.st5_conference-3-59{fill:url(#SVGID_00000082367607410455112870000004884020712435710594_);}
	.st6_conference-3-59{fill:url(#SVGID_00000040576136225326470440000017772007005881084598_);}
	.st7_conference-3-59{fill:#68E1FD;}
	.st8_conference-3-59{opacity:0.5;fill:#42342D;enable-background:new    ;}
	.st9_conference-3-59{fill:#FF734D;}
	.st10_conference-3-59{fill:#FFC745;}
	.st11_conference-3-59{fill:#FFE0DE;}
	.st12_conference-3-59{fill:#16A79E;}
	.st13_conference-3-59{fill:#42342D;}
	.st14_conference-3-59{opacity:0.2;fill:#42342D;enable-background:new    ;}
	.st15_conference-3-59{fill:#F679BD;}
	.st16_conference-3-59{fill:#0071BC;}
</style>
<g id="background_conference-3-59">
	<path class="st0_conference-3-59" d="M243.8,412.3L24.9,282.9C18,279,12,272.6,18.8,268.4l219.7-126.6c3.3-2,8.3-3.4,11.6-1.4l229.8,133.3&#10;&#9;&#9;c7,4,8.2,15.4,1.2,19.4l-208.4,119C263.7,417.2,252.8,417.3,243.8,412.3z"/>
	
		<linearGradient id="SVGID_1_-conference-3-59" gradientUnits="userSpaceOnUse" x1="163.4788" y1="263.3992" x2="145.8988" y2="289.5992" gradientTransform="matrix(1 0 0 -1 0 502)">
		<stop offset="1.000000e-02" style="stop-color:#55823D"/>
		<stop offset="1" style="stop-color:#006837"/>
	</linearGradient>
	<polyline class="st1_conference-3-59" points="71.6,254.2 113.9,278.6 241.4,202.2 200,181.9 &#9;"/>
	
		<linearGradient id="SVGID_00000100348610839355160660000016941365150889487750_-conference-3-59" gradientUnits="userSpaceOnUse" x1="-3632.8838" y1="237.2443" x2="-3609.4338" y2="258.9743" gradientTransform="matrix(-1 0 0 -1 -3386.1599 502)">
		<stop offset="1.000000e-02" style="stop-color:#55823D"/>
		<stop offset="1" style="stop-color:#006837"/>
	</linearGradient>
	<polyline style="fill:url(#SVGID_00000100348610839355160660000016941365150889487750_);" points="205.1,252.7 238.3,281.7 &#10;&#9;&#9;274.1,263.6 221.4,243.7 &#9;"/>
	
		<linearGradient id="SVGID_00000148637331791801247640000003284480209674177412_-conference-3-59" gradientUnits="userSpaceOnUse" x1="-3665.5112" y1="115.6614" x2="-3642.7012" y2="136.8014" gradientTransform="matrix(-1 0 0 -1 -3386.1599 502)">
		<stop offset="1.000000e-02" style="stop-color:#55823D"/>
		<stop offset="1" style="stop-color:#006837"/>
	</linearGradient>
	<polyline style="fill:url(#SVGID_00000148637331791801247640000003284480209674177412_);" points="235.8,377.9 273.2,400 &#10;&#9;&#9;309,381.9 256.3,362.1 &#9;"/>
	
		<linearGradient id="SVGID_00000129178676793006900920000004239476118380078015_-conference-3-59" gradientUnits="userSpaceOnUse" x1="-3728.853" y1="149.3931" x2="-3706.033" y2="170.5331" gradientTransform="matrix(-1 0 0 -1 -3386.1599 502)">
		<stop offset="1.000000e-02" style="stop-color:#55823D"/>
		<stop offset="1" style="stop-color:#006837"/>
	</linearGradient>
	<polyline style="fill:url(#SVGID_00000129178676793006900920000004239476118380078015_);" points="299.2,344.1 336.6,366.3 &#10;&#9;&#9;372.3,348.2 319.6,328.3 &#9;"/>
	
		<linearGradient id="SVGID_00000036953410863338635950000011159119709624016020_-conference-3-59" gradientUnits="userSpaceOnUse" x1="-3791.4001" y1="185.6103" x2="-3770.7102" y2="204.7703" gradientTransform="matrix(-1 0 0 -1 -3386.1599 502)">
		<stop offset="1.000000e-02" style="stop-color:#55823D"/>
		<stop offset="1" style="stop-color:#006837"/>
	</linearGradient>
	<polyline style="fill:url(#SVGID_00000036953410863338635950000011159119709624016020_);" points="367.6,306.8 405,328.9 &#10;&#9;&#9;430.3,314.4 388,291 &#9;"/>
	
		<linearGradient id="SVGID_00000015330865190140938870000005426744317687515530_-conference-3-59" gradientUnits="userSpaceOnUse" x1="-3700.364" y1="295.4042" x2="-3676.9138" y2="317.1342" gradientTransform="matrix(-1 0 0 -1 -3386.1599 502)">
		<stop offset="1.000000e-02" style="stop-color:#55823D"/>
		<stop offset="1" style="stop-color:#006837"/>
	</linearGradient>
	<polyline style="fill:url(#SVGID_00000015330865190140938870000005426744317687515530_);" points="272.6,194.5 305.8,223.6 &#10;&#9;&#9;341.5,205.4 288.8,185.6 &#9;"/>
</g>
<g id="plant_conference-3-59">
	<path class="st7_conference-3-59 targetColor" d="M292.2,170.1c-0.8-1.7-4.3-3-8.6-3s-7.9,1.4-8.6,3.1c-5,7-9.9,18.3-3.8,25.9c3,3.5,7.4,5.5,12,5.4h0.8&#10;&#9;&#9;c4.6,0,9-2,12-5.4C302.2,188.6,297.2,177.1,292.2,170.1z" style="fill: rgb(104, 225, 253);"/>
	<ellipse class="st8_conference-3-59" cx="283.6" cy="170.9" rx="8.7" ry="3.7"/>
	<path class="st9_conference-3-59" d="M293.8,139.1c-5.4,9.1-8.7,19.4-9.7,29.9c0-12.8-1.2-25.5-3.5-38.1c-0.1-0.4-0.8-0.2-0.7,0.2&#10;&#9;&#9;c2.6,14.1,3.8,28.3,3.4,42.6c0,0.2,0.2,0.3,0.3,0.3c0,0,0.1,0,0.1,0c0,0.1,0,0.2,0,0.3c0,0.2,0.2,0.3,0.4,0.3&#10;&#9;&#9;c0.2,0,0.3-0.1,0.3-0.3c0.2-12.3,3.7-24.3,9.9-34.9c0.1-0.2,0-0.4-0.1-0.5C294.1,138.9,293.9,138.9,293.8,139.1z"/>
	<path class="st9_conference-3-59" d="M288.3,150.7c0,0,5.4-17.4,17-23.8c0,0-2.4,3.5-1.2,6.3s2.8,7.8-2.7,10.7s-8.6,0-8.2,5.5s2.6,8.2-0.9,10.8&#10;&#9;&#9;s-6.5,5-7.7,10.7C284.7,170.9,286,156.5,288.3,150.7z"/>
	<path class="st9_conference-3-59" d="M283.1,148.9c0,0-2.2-26.7-7-33.5c0.4,2.6-0.1,5.2-1.3,7.5c-2,3.9-4.2,5.2-3,10.2s5.9,4,5.5,9.1&#10;&#9;&#9;s-4.4,4.1-2.5,10.4s8.8,10.5,8.8,10.5"/>
</g>
<g id="screen_conference-3-59">
	<path class="st7_conference-3-59 targetColor" d="M62.4,153.1l122.3-70.4c1.8-1,4.1-0.4,5.1,1.4c0.3,0.5,0.4,1,0.5,1.6l7.9,97.6c0.1,1.5-0.6,2.8-1.9,3.6&#10;&#9;&#9;L76.6,254.6c-1.8,1-4.1,0.4-5.1-1.4c-0.3-0.4-0.4-0.9-0.5-1.5l-10.5-95C60.4,155.2,61.1,153.8,62.4,153.1z" style="fill: rgb(104, 225, 253);"/>
	<polygon class="st10_conference-3-59" points="185.3,103.6 147.4,126.1 151.9,180.7 189.9,159.3 &#9;"/>
	<polygon class="st11_conference-3-59" points="140.8,129.5 103,152 107.4,206.6 145.4,185.2 &#9;"/>
	<path class="st11_conference-3-59" d="M95.2,156.2c0,0.3,2.1,22.4,2.1,22.4s-25,14.2-24.9,14s-2.6-22-2.6-22L95.2,156.2z"/>
	<path class="st9_conference-3-59" d="M98.9,185.2c0,0.3,2.1,22.4,2.1,22.4s-25,14.2-24.9,14s-2.6-22-2.6-22L98.9,185.2z"/>
	<path class="st9_conference-3-59" d="M111.4,180.1l1.1,13.6c0.3,4,6.5,3.4,6.1-0.5l-1.1-13.6C117.3,175.6,111.1,176.2,111.4,180.1z"/>
	<path class="st9_conference-3-59" d="M120.8,165.5l1.8,21.9c0.3,3.9,6.5,3.4,6.1-0.5L127,165C126.7,161,120.5,161.5,120.8,165.5z"/>
	<path class="st9_conference-3-59" d="M132.2,148.8l2.8,33.7c0.3,4,6.5,3.4,6.1-0.5l-2.8-33.7C138.1,144.3,131.9,144.8,132.2,148.8z"/>
	<polygon class="st11_conference-3-59" points="159.7,167.9 157.6,142.6 153.2,144.4 158.6,135.2 163.9,139.6 160.3,141.4 162.1,166.8 &#9;"/>
	<polygon class="st11_conference-3-59" points="169.9,154.6 167.7,129.2 163.4,131 168.7,121.8 174,126.2 170.5,128 172.2,153.4 &#9;"/>
	
		<ellipse transform="matrix(7.602295e-02 -0.9971 0.9971 7.602295e-02 -103.2959 242.3003)" class="st9_conference-3-59" cx="79.1" cy="176.9" rx="7.5" ry="4.4"/>
	
		<ellipse transform="matrix(7.602295e-02 -0.9971 0.9971 7.602295e-02 -113.7282 277.4061)" class="st11_conference-3-59" cx="92.8" cy="200.1" rx="7.5" ry="4.4"/>
</g>
<g id="table_conference-3-59">
	<polyline class="st7_conference-3-59 targetColor" points="185,316.9 185,354.5 209.6,368.8 393.5,259.6 395.4,223.3 &#9;" style="fill: rgb(104, 225, 253);"/>
	<polygon class="st12_conference-3-59" points="210,331.8 395.4,223.3 368.6,209.7 185,316.9 &#9;"/>
</g>
<g id="character_4_conference-3-59">
	<path class="st13_conference-3-59" d="M248.3,357.1c0,0.5,0.4,5.9-0.2,6.5s-2.2,3.7-4.2,3.8s-3.8-0.3-4.2,1.9s11.2,2.8,11.2,2.8s1.2-4.8,1.7-4.7&#10;&#9;&#9;s0.5,5.3,0.5,5.3l2.1,0.5l2.1-1.4l-0.9-9.3l-1.4-7.9"/>
	<path class="st13_conference-3-59" d="M239.7,364.9c0.3,3.3,0.1,7.7-3,9.7c-1.7,1.1-5.2,0.1-5.7,2.5c-0.4,2.1,11.2,2.9,11.2,2.9s1.2-4.8,1.8-4.7&#10;&#9;&#9;s0.5,5.3,0.5,5.3l2.1,0.5l2.1-1.4l-0.8-9.3l-1.4-7.9"/>
	<path class="st11_conference-3-59" d="M244.8,305.3c-0.5-0.7-1-1.3-1.5-2c-0.4-0.5-0.3-1.3,0.3-1.7c0.2-0.2,0.5-0.2,0.8-0.2&#10;&#9;&#9;c-0.3-0.6-0.6-1.1-0.7-1.8c-0.1-0.6,0.3-1.2,0.9-1.3c0.4-0.1,0.8,0.1,1.1,0.4l2.5,3.4l-1.3-2.2c-0.7-1.3,1.3-2.2,2.1-1l2.2,3.8&#10;&#9;&#9;c0-0.4,0-0.7,0-1.1c0.1-1,0.2-2.2,1.5-2.3c0.6-0.1,1.2,0.3,1.3,0.9c0.2,0.8,0.2,1.7-0.1,2.5c-0.2,0.9-0.8,2.1-0.3,3&#10;&#9;&#9;c0.8,1.3,1.7,2.7,2.6,4c0.4,0.5,0.3,1.2-0.2,1.6c-0.2,0.1-0.3,0.2-0.5,0.2c-0.1,0.6-0.6,1.1-1.3,1.1c-0.1,0-0.2,0-0.3-0.1&#10;&#9;&#9;c-0.2,0.1-0.5,0.2-0.8,0.2c-0.3,0.4-0.9,0.5-1.3,0.3c-0.2,0.6-0.9,0.9-1.4,0.7c-0.2-0.1-0.3-0.2-0.5-0.3c-1.8-2.2-4.2-3.8-5.9-6.2&#10;&#9;&#9;c-0.4-0.6-0.2-1.3,0.4-1.7C244.5,305.4,244.6,305.3,244.8,305.3z"/>
	<path class="st14_conference-3-59" d="M244.8,305.3c-0.5-0.7-1-1.3-1.5-2c-0.4-0.5-0.3-1.3,0.3-1.7c0.2-0.2,0.5-0.2,0.8-0.2&#10;&#9;&#9;c-0.3-0.6-0.6-1.1-0.7-1.8c-0.1-0.6,0.3-1.2,0.9-1.3c0.4-0.1,0.8,0.1,1.1,0.4l2.5,3.4l-1.3-2.2c-0.7-1.3,1.3-2.2,2.1-1l2.2,3.8&#10;&#9;&#9;c0-0.4,0-0.7,0-1.1c0.1-1,0.2-2.2,1.5-2.3c0.6-0.1,1.2,0.3,1.3,0.9c0.2,0.8,0.2,1.7-0.1,2.5c-0.2,0.9-0.8,2.1-0.3,3&#10;&#9;&#9;c0.8,1.3,1.7,2.7,2.6,4c0.4,0.5,0.3,1.2-0.2,1.6c-0.2,0.1-0.3,0.2-0.5,0.2c-0.1,0.6-0.6,1.1-1.3,1.1c-0.1,0-0.2,0-0.3-0.1&#10;&#9;&#9;c-0.2,0.1-0.5,0.2-0.8,0.2c-0.3,0.4-0.9,0.5-1.3,0.3c-0.2,0.6-0.9,0.9-1.4,0.7c-0.2-0.1-0.3-0.2-0.5-0.3c-1.8-2.2-4.2-3.8-5.9-6.2&#10;&#9;&#9;c-0.4-0.6-0.2-1.3,0.4-1.7C244.5,305.4,244.6,305.3,244.8,305.3z"/>
	<path class="st10_conference-3-59" d="M269.3,320.4c-0.8,2.6-3.1,4.3-5.8,4.5c-4.6,0.3-13.4-9.5-13.4-9.5s-0.2-8.7,3.6-10.2c0,0,6.3,5.5,7.2,5.5&#10;&#9;&#9;s6-4.8,6-4.8"/>
	<path class="st11_conference-3-59" d="M242.7,306.1l-1.1-2.2c-0.3-0.6-0.1-1.3,0.5-1.6c0.3-0.1,0.6-0.2,0.9-0.1c-0.2-0.6-0.3-1.2-0.4-1.9&#10;&#9;&#9;c0-0.6,0.5-1.1,1.2-1.1c0.4,0,0.7,0.2,0.9,0.5l1.9,3.8l-0.9-2.4c-0.5-1.4,1.7-2,2.2-0.6l1.5,4.1l0.2-1.1c0.2-1,0.6-2.2,1.8-2&#10;&#9;&#9;c0.6,0,1.1,0.5,1.1,1.1c0,0.9-0.1,1.7-0.5,2.5c-0.4,0.9-1.1,2-0.8,2.9c0.6,1.5,1.2,2.9,1.8,4.4c0.3,0.6,0.1,1.2-0.5,1.5&#10;&#9;&#9;c-0.2,0.1-0.3,0.1-0.5,0.1c-0.2,0.6-0.8,1-1.4,0.8c-0.1,0-0.2-0.1-0.3-0.1c-0.7,0-1.4,0.1-2.1,0.1c-0.3,0.5-1,0.7-1.6,0.4&#10;&#9;&#9;c-0.2-0.1-0.3-0.2-0.4-0.4c-1.4-2.5-3.5-4.5-4.8-7.1c-0.3-0.6,0-1.4,0.6-1.6C242.4,306.2,242.6,306.1,242.7,306.1z"/>
	<path class="st15_conference-3-59" d="M258.6,352.9l1.7,9.3c0,0-2.7,2.7-11.6,2.4s0-16.4,0-16.4"/>
	<ellipse class="st16_conference-3-59" cx="270.3" cy="374.5" rx="12.8" ry="4.8"/>
	<polyline class="st16_conference-3-59" points="272.4,353.3 271.9,372.4 268.1,372.4 268.1,353.3 &#9;"/>
	<path class="st15_conference-3-59" d="M263.9,330.5c0,0-10-8-16.7-9s-10.1,6.3-9.7,11.1s16.4,7.5,16.4,7.5"/>
	<path class="st8_conference-3-59" d="M258.6,352.9l1.7,9.3c0,0-2.7,2.7-11.6,2.4s0-16.4,0-16.4"/>
	<path class="st8_conference-3-59" d="M263.9,330.5c0,0-10-8-16.7-9s-10.1,6.3-9.7,11.1s16.4,7.5,16.4,7.5"/>
	<path class="st15_conference-3-59" d="M258.5,333.1c-1.3-1.2-18.3-9.1-24.3-5.5s-5.6,6.3-4.9,10.7s6.6,28.2,6.6,28.2c4.3,1.7,9.1,1.9,13.6,0.6&#10;&#9;&#9;l-1.7-17.7l22.7-12.4"/>
	<path class="st10_conference-3-59" d="M270.9,304.7c-0.9,0.7-8.7,1.6-10.3,5.2s-4.1,22-4.1,22s4.7,7,12.7,4.5c2.4-0.7,14.8-23.4,15.1-25.8&#10;&#9;&#9;C285.3,304.5,270.9,304.7,270.9,304.7z"/>
	<path class="st7_conference-3-59 targetColor" d="M286.2,344.6c0.4-0.9,0.7-1.9,1-2.9c1.9-7.5,3.1-35.5-9.4-34.4c-13.8,1.2-9.1,35.9-23.2,34.8s-19.7,2.6-14,8&#10;&#9;&#9;C252,361,279.2,361.3,286.2,344.6z" style="fill: rgb(104, 225, 253);"/>
	<path class="st11_conference-3-59" d="M266,295.1c-0.1,0.6-1.1,8.6,1.3,10.4s7.7-2.5,7.8-4.6s1.9-6.5-0.3-7.6S266.6,291.1,266,295.1z"/>
	<path class="st10_conference-3-59" d="M263.9,325.6c-1.3,2.3-3.9,3.6-6.6,3.3C252.7,328.3,246,317,246,317s1.4-8.6,5.5-9.3c0,0,5.2,6.6,6,6.8&#10;&#9;&#9;s3.2-4.6,3.2-4.6"/>
	<path class="st13_conference-3-59" d="M266.5,308.4c1-0.7,2.4-1.2,2.1-2.6c-0.3-1.2-1.5-2.1-1.5-3.3c0-1.2,0.4-2.4,1.3-3.3c0.5-0.5,1.2-0.9,0.8-1.7&#10;&#9;&#9;c-0.3-0.6-0.8-1-1.3-1.3l-2.6,0.1c-1-2.8,0.3-5.9,2.9-7.3c3-1.8,8.1-1.4,10.6,1.2c0.7,0.7,1.3,1.5,1.8,2.4c0.6,1.1,1.3,2.1,2.3,3&#10;&#9;&#9;c1.1,0.6,1.8,1.7,1.9,2.9c0.1,1.2-0.2,2.3-0.9,3.3c-0.7,1.3,0.4,2.1,1.2,3c0.9,0.8,1.6,2,1.7,3.2c0.1,2.7-2.5,3.9-4.7,4.3&#10;&#9;&#9;s-4.2,0.7-6.3,1.1c-2.7,0.5-5.3,1.4-8,0.7c-0.7-0.2-1.4-0.5-1.9-1c-1.1-1.1-1.1-3,0-4.1c0.1-0.1,0.1-0.1,0.2-0.2L266.5,308.4z"/>
</g>
<g id="character_3_conference-3-59">
	<path class="st13_conference-3-59" d="M310.6,332.5c0.5-0.1,2.1-0.1,2.8-0.1c1.9,1.3,4.2,2.1,6.5,2.2c2.8,0.4,5.7-0.2,8-1.8&#10;&#9;&#9;c0.3,2.4,0.5,4.3,0.5,4.3c0.3,3.3-4.1,2.6-5.7,2.6c-3.2-0.2-6.4-0.7-9.5-1.5c-1.2-0.3-5.2-0.9-5.4-3S308.2,332.7,310.6,332.5z"/>
	<path class="st11_conference-3-59" d="M318.1,320.6c0,0,2.5,11.7,1.3,11.6s-8.8,0.3-8.8,0.3c1.4,2.9,4.3,4.9,7.5,5.3c5.7,0.8,9.8-5,9.8-5l-2.3-14.5&#10;&#9;&#9;"/>
	<path class="st10_conference-3-59" d="M328.8,315.2l1.7,9.3c0,0-2.7,2.7-11.6,2.4s0-16.4,0-16.4"/>
	<path class="st10_conference-3-59" d="M334.1,292.8c0,0-10-8-16.7-9s-10.1,6.3-9.6,11.1s16.4,7.5,16.4,7.5"/>
	<path class="st8_conference-3-59" d="M328.8,315.2l1.7,9.3c0,0-2.7,2.7-11.6,2.4s0-16.4,0-16.4"/>
	<path class="st8_conference-3-59" d="M334.1,292.8c0,0-10-8-16.7-9s-10.1,6.3-9.6,11.1s16.4,7.5,16.4,7.5"/>
	<path class="st13_conference-3-59" d="M301.2,339.4c0.5-0.1,2.2-0.1,2.8-0.1c1.9,1.3,4.2,2.1,6.5,2.2c2.8,0.4,5.7-0.2,8-1.8&#10;&#9;&#9;c0.3,2.4,0.5,4.3,0.5,4.3c0.3,3.3-4.1,2.7-5.7,2.6c-3.2-0.2-6.4-0.6-9.5-1.4c-1.2-0.3-5.2-0.9-5.4-3S298.9,339.7,301.2,339.4z"/>
	<path class="st11_conference-3-59" d="M308.7,327.5c0,0,2.5,11.7,1.3,11.6s-8.8,0.3-8.8,0.3c1.4,2.9,4.3,4.9,7.5,5.3c5.7,0.8,9.8-5,9.8-5l-2.3-14.5&#10;&#9;&#9;"/>
	<path class="st10_conference-3-59" d="M328.1,295.8c-1.3-1.2-18.3-9.1-24.3-5.5s-5.6,6.3-4.9,10.7s6.5,28.2,6.5,28.2c4.3,1.7,9.1,1.9,13.6,0.6&#10;&#9;&#9;l-1.7-17.7l22.7-12.4"/>
	<polygon class="st13_conference-3-59" points="328,294 322.6,298 299.6,286.2 315,275.3 336.5,287.5 &#9;"/>
	<path class="st9_conference-3-59" d="M350.9,280.8c0,0,0.4-13.5-5.8-13.7s-14.2,4.2-14.6,11.4s-1.6,20.5-1.6,23s4.5,11.8,4.5,11.8"/>
	<path class="st11_conference-3-59" d="M311,281l-0.1-0.1c-0.4-0.2-0.6-0.8-0.3-1.2c0.2-0.4,0.8-0.6,1.2-0.3l0.2,0.1c0-0.5,0.4-0.9,0.9-0.9&#10;&#9;&#9;c0.1,0,0.3,0,0.4,0.1c1,0.5,2,1,3,1.5l-0.4-0.5c-0.6-0.7,0.1-2,1.1-1.4c1.2,0.8,2.4,1.5,3.6,2.4c0.4,0.3,0.5,0.9,0.2,1.3&#10;&#9;&#9;c0,0,0,0,0,0l0.2,0.1c0.4,0.3,0.5,0.8,0.3,1.2c0.1,0.3,0.1,0.6-0.1,0.8c0.5,0.4,0.2,1.2-0.4,1.4c0,0,0,0.1-0.1,0.1l1,0.4&#10;&#9;&#9;c1.1,0.4,0.6,2.1-0.5,1.7l-5.4-1.9c-1.4-0.3-2.7-1-3.8-2c-0.3-0.3-0.3-0.7-0.1-1c-0.4-0.2-0.7-0.4-1.1-0.7c-0.3-0.3-0.3-0.8,0-1.1&#10;&#9;&#9;C310.8,281.1,310.9,281.1,311,281z"/>
	<path class="st9_conference-3-59" d="M332.8,284.4c0,0-9.6-3.9-12.5-4.8c0,0-3,2.1-2.1,7.5c0,0,8.7,8.9,14,11.5"/>
	<ellipse class="st16_conference-3-59" cx="338.9" cy="340.6" rx="12.8" ry="4.8"/>
	<polyline class="st16_conference-3-59" points="341.1,319.4 340.6,338.5 336.8,338.5 336.8,319.4 &#9;"/>
	<path class="st7_conference-3-59 targetColor" d="M356.4,308.6c0.4-0.9,0.7-1.9,1-2.9c1.9-7.5,3.1-35.5-9.5-34.4c-13.8,1.2-9.1,35.9-23.2,34.8s-19.8,2.6-14,8&#10;&#9;&#9;C322.2,325,349.4,325.3,356.4,308.6z" style="fill: rgb(104, 225, 253);"/>
	<path class="st11_conference-3-59" d="M338.3,255.1c0,0-4.6,9.7-1.6,12.6c2.1,2,6.4,1.9,8.6-1.8S342.5,253.3,338.3,255.1z"/>
	<path class="st10_conference-3-59" d="M342.8,264.4c-2.5-2.2-4-5.3-4.5-8.6c-0.5-5.2,11-3.4,12.8,1.7s-0.9,12.3-8.6,11.3L342.8,264.4z"/>
	<path class="st10_conference-3-59" d="M348.1,265c0.8,0.7,20.9,21.2,10.5,28c-8.7,5.7-12-24.3-12-26.6"/>
</g>
<g id="character_2_conference-3-59">
	<path class="st11_conference-3-59" d="M400,230.2l6.3-2.6l0.7,6.1l-6.7,1.2C400,233.3,400,231.7,400,230.2z"/>
	<path class="st13_conference-3-59" d="M380,286.1l1.3,6.2c-1.8-0.4-3.6-0.5-5.4-0.5c-1.4,0.2-3.2,2.6-1.4,4.3s4.7,1.5,7.6,2.2s3.4,0.8,5.3,0.3&#10;&#9;&#9;s2.2-3.1,2.2-3.1l-1.5-10.8"/>
	<path class="st9_conference-3-59" d="M389.8,280l1.7,9.3c0,0-2.7,2.7-11.6,2.4s-6.8-18.6-6.8-18.6"/>
	<ellipse class="st16_conference-3-59" cx="401.5" cy="301.7" rx="12.8" ry="4.8"/>
	<polyline class="st16_conference-3-59" points="403.6,280.4 403.1,299.5 399.3,299.5 399.3,280.4 &#9;"/>
	<path class="st13_conference-3-59" d="M371.3,293.7l1.8,8.5c-1.8-0.4-3.6-0.5-5.4-0.6c-1.4,0.2-3.2,2.6-1.4,4.3s4.7,1.5,7.6,2.2s3.4,0.8,5.3,0.3&#10;&#9;&#9;s2.2-3.1,2.2-3.1l-1.4-10.8"/>
	<path class="st9_conference-3-59" d="M395,257.6c0,0-10-8-16.7-9s-10.1,6.3-9.6,11.1c0.5,4.8,16.4,7.5,16.4,7.5"/>
	<path class="st8_conference-3-59" d="M389.8,280l1.7,9.3c0,0-2.7,2.7-11.6,2.4s-6.8-18.6-6.8-18.6"/>
	<path class="st8_conference-3-59" d="M395,257.6c0,0-10-8-16.7-9s-10.1,6.3-9.6,11.1c0.5,4.8,16.4,7.5,16.4,7.5"/>
	<path class="st9_conference-3-59" d="M397.6,261.3c-1.3-1.2-23.5-7.8-29.5-4.2c-6,3.6-6.4,6.2-5.6,10.6s4.6,26,4.6,26s2.9,2.5,10.8,0.5l-4.2-24.3&#10;&#9;&#9;l25.6,6.1"/>
	<path class="st16_conference-3-59" d="M402.1,232.1c-1.4,0.2-2.7,0.5-4,0.9c-2.2,0.7-5.3,1.7-6.4,4c-1.6,3.6-4.1,22-4.1,22s4.7,7,12.7,4.5&#10;&#9;&#9;c2.4-0.7,14.8-23.4,15.1-25.8c0.4-2.9-2.7-4.2-4.9-4.9c-1.4-0.4-2.9-0.6-4.4-0.8C404.9,231.9,403.5,231.9,402.1,232.1z"/>
	<path class="st7_conference-3-59 targetColor" d="M417.4,271.7c0.4-0.9,0.7-1.9,1-2.9c1.9-7.5,3.2-35.5-9.4-34.4c-13.8,1.2-9.1,35.9-23.2,34.8s-19.7,2.6-14,8&#10;&#9;&#9;C383.2,288.2,410.4,288.4,417.4,271.7z" style="fill: rgb(104, 225, 253);"/>
	<path class="st11_conference-3-59" d="M395.7,220.4c-0.1,0.5,0.3,8.8,2.6,10.6s8-1.5,8.1-3.5s-0.1-7.7-2.3-8.8S396.3,216.6,395.7,220.4z"/>
	<path class="st13_conference-3-59" d="M394.5,216.5c0.8-1.3,2.3-1.9,3.8-1.5c0.1,0,0.1,0,0.2,0.1c0.4-0.9,1.1-1.7,2-2.1c1.1-0.4,2.3-0.2,3.1,0.6&#10;&#9;&#9;c0.9-0.8,2.1-1.1,3.2-0.8c1.1,0.3,1.9,1.3,2,2.5c1,0,2,0.5,2.6,1.3c0.4,0.7,0.6,1.6,0.3,2.5c0.8,0.6,1.4,1.5,1.5,2.5&#10;&#9;&#9;c0.2,1.1-0.2,2.2-1.1,2.9c0.2,0.9,0,1.9-0.6,2.6c-0.4,0.5-0.9,0.9-1.6,1.1c-0.2,0.5-0.5,1-1,1.2c-0.5,0.3-1,0.4-1.5,0.4&#10;&#9;&#9;c-0.4,0.6-1.1,1.1-1.9,1.2c-1.8,0.4-4.4,0.4-4.6,0.1s1.1-4.8-0.1-5.1s-4-0.9-4-4.1c-1,0-2-0.6-2.6-1.4&#10;&#9;&#9;C393.6,219.3,393.7,217.7,394.5,216.5z"/>
	<path class="st11_conference-3-59" d="M361.9,248.3c0-0.3,0.3-0.5,0.6-0.5c0,0,0.1,0,0.1,0l0.8,0.3c-0.2-0.1-0.3-0.3-0.3-0.5&#10;&#9;&#9;c-0.1-0.3,0-0.5,0.2-0.7c0.1-0.2,0.4-0.4,0.7-0.3l3.6,1.2c-0.6-0.4-1.8-1.2-0.8-1.9c0.8-0.6,2.1,0.4,2.8,0.7&#10;&#9;&#9;c1.4,0.7,2.7,1.4,3.9,2.3c0.1,0.1,0.2,0.2,0.2,0.3h0.5h0.7c-0.1,0.8-0.2,1.7-0.3,2.5c0,0.1,0,0.3-0.1,0.4c-0.1,0.4-0.4,0.9,0,0.3&#10;&#9;&#9;c-0.3,0.5-0.4,1.1-0.3,1.7c-1.7,0.3-3.4,0.1-5-0.4c-1.1-0.4-3.5-0.2-3.6-1.8c-0.8-0.3-1.5-0.8-2-1.6c0-0.1-0.1-0.2-0.1-0.2&#10;&#9;&#9;c-0.8-0.3-1.5-0.8-1.6-1.4C361.9,248.5,361.9,248.4,361.9,248.3z"/>
	<path class="st13_conference-3-59" d="M364.2,247c-0.2-0.1-0.1-0.5,0.1-0.4c1.5,0.5,3,1.1,4.5,1.7c0.2,0.1,0.1,0.5-0.1,0.4&#10;&#9;&#9;C367.2,248.1,365.7,247.5,364.2,247z"/>
	<path class="st13_conference-3-59" d="M362.6,248.2c-0.1,0-0.2-0.2-0.1-0.3c0-0.1,0.1-0.1,0.2-0.1l6.1,2c0.1,0,0.2,0.2,0.1,0.3&#10;&#9;&#9;c0,0.1-0.1,0.1-0.2,0.1L362.6,248.2z"/>
	<path class="st13_conference-3-59" d="M363.9,250l4.8,1.3c0.2,0.1,0.1,0.4-0.1,0.4l-4.8-1.3C363.5,250.3,363.6,249.9,363.9,250z"/>
	<path class="st13_conference-3-59" d="M365.7,251.8c1.2,0.3,2.4,0.5,3.6,0.7c0.3,0,0.1,0.4-0.1,0.4c-1.2-0.2-2.4-0.4-3.6-0.7&#10;&#9;&#9;C365.4,252.2,365.5,251.8,365.7,251.8z"/>
	<path class="st16_conference-3-59" d="M391.8,237c0,0-6.2,13.3-8.1,13.8s-9.4-3.3-10.7-2.3s-3.5,5.2-2,7.2c1.5,1.9,14.9,6.3,18.7,4.6&#10;&#9;&#9;s10-15.2,9.6-18.4S394.9,233.9,391.8,237z"/>
</g>
<g id="character_1_conference-3-59">
	<path class="st11_conference-3-59" d="M227.9,167.9c0.1,0.3,0.1,0.5,0.2,0.8c0.3-0.1,0.6,0.1,0.7,0.4c0.2,0.8,0.4,1.6,0.7,2.4&#10;&#9;&#9;c0.1,0.1,0.1,0.1,0.2,0.2c0.7,1.6,1.7,3.1,2.9,4.4c1,1,2.2,1.8,3.2,2.7c0.4,0.4,0,0.9-0.4,1c-0.3,0.1-0.7,0-1-0.1&#10;&#9;&#9;c-0.7-0.2-1.4-0.6-2-1.1c0.2,0.3,0.3,0.6,0.4,0.9c0.2,0.4,0.3,0.7,0.5,1.1c0.3,0.6,0.5,1.1,0.7,1.7c0.1,0.6-0.2,1.1-0.6,1.1&#10;&#9;&#9;c-0.7-0.1-1-1.1-1.3-1.6s-0.6-1-0.9-1.6c0.2,0.6,0.4,1.6,0.6,2.4c0.1,0.6,0.7,2.3,0,2.6s-1.2-0.8-1.4-1.4l-0.6-1.6&#10;&#9;&#9;c-0.2-0.5-0.4-1.1-0.5-1.5c0,0,0.1,1.4,0.2,2.1c0.1,0.6,0.3,1.3-0.4,1.6c-0.4,0.2-0.9-0.4-1-0.8c-0.2-1.2-0.4-2.4-0.6-3.6&#10;&#9;&#9;c-0.1,0.6-0.1,1.2-0.2,1.7c-0.1,0.3-0.4,0.6-0.7,0.5c-0.2,0-0.3-0.1-0.4-0.3c-0.1-0.1-0.1-0.2-0.1-0.3c-0.3-3.2-0.6-6.4-0.9-9.6&#10;&#9;&#9;c-0.4-1.3-0.6-2.6-0.5-4c0.1-0.3,0.4-0.5,0.7-0.5c0.3,0.1,0.5,0.3,0.5,0.6v0.1c0,0,0.1,0,0.1,0c0.2-0.1,0.4-0.1,0.5,0l0,0&#10;&#9;&#9;c0-0.1,0.1-0.1,0.1-0.2c-0.1-0.3,0.2-0.7,0.5-0.7S227.9,167.6,227.9,167.9z"/>
	<path class="st13_conference-3-59" d="M231.5,178.8c-1.2,0-2.4-0.5-3.1-1.5c-0.2-0.2,0.2-0.5,0.3-0.3c0.6,0.9,1.7,1.4,2.8,1.4&#10;&#9;&#9;C231.8,178.4,231.8,178.8,231.5,178.8z"/>
	<path class="st13_conference-3-59" d="M231.5,179.6c0.5,1,1,2.1,1.6,3.1c0.1,0.2-0.2,0.4-0.4,0.2c-0.6-1-1.1-2-1.6-3.1c0-0.1,0-0.2,0.1-0.3&#10;&#9;&#9;S231.4,179.5,231.5,179.6z"/>
	<path class="st13_conference-3-59" d="M229.5,180.1c0.4,1.3,0.8,2.6,1.4,3.8c0,0.1,0,0.2-0.2,0.3c-0.1,0-0.2,0-0.2-0.1c-0.6-1.3-1.1-2.6-1.4-3.9&#10;&#9;&#9;C229,179.9,229.4,179.8,229.5,180.1z"/>
	<path class="st13_conference-3-59" d="M227.9,179.2c0,1.4,0.1,2.7,0.5,4.1c0.1,0.3-0.4,0.3-0.4,0.1c-0.3-1.4-0.5-2.8-0.5-4.2&#10;&#9;&#9;C227.5,178.9,227.9,179,227.9,179.2z"/>
	<path class="st12_conference-3-59" d="M226.7,140.7c1,0.8,5.1,28.6,4.4,30.6s-6.8,5-6.8,5"/>
	<path class="st14_conference-3-59" d="M226.7,140.7c1,0.8,5.1,28.6,4.4,30.6s-6.8,5-6.8,5"/>
	<path class="st11_conference-3-59" d="M189.8,140.4l-0.4-0.7c0.3-0.2,0.4-0.5,0.3-0.8c-0.3-0.8-0.7-1.5-1-2.3c0-0.1,0-0.2,0-0.3&#10;&#9;&#9;c-0.5-1.7-0.7-3.5-0.6-5.2c0.2-1.4,0.6-2.8,0.7-4.2c0.1-0.5-0.5-0.7-0.9-0.5c-0.3,0.2-0.6,0.4-0.7,0.7c-0.4,0.6-0.7,1.4-0.8,2.1&#10;&#9;&#9;c0-0.3-0.1-0.7-0.2-1c-0.1-0.4-0.2-0.8-0.3-1.2c-0.1-0.6-0.3-1.2-0.6-1.8c-0.3-0.5-0.9-0.8-1.2-0.4c-0.4,0.5,0,1.5,0.1,2.1&#10;&#9;&#9;s0.2,1.1,0.3,1.8c-0.2-0.6-0.7-1.6-1-2.2c-0.2-0.5-0.9-2.2-1.7-2s-0.4,1.4-0.2,2s0.4,1.1,0.6,1.6s0.4,1.1,0.6,1.5&#10;&#9;&#9;c0,0-0.8-1.2-1.2-1.8s-0.7-1.2-1.4-1c-0.5,0.1-0.4,0.8-0.2,1.2c0.6,1.1,1.2,2.1,1.9,3.2c-0.4-0.4-0.9-0.8-1.3-1.2&#10;&#9;&#9;c-0.3-0.2-0.7-0.2-0.9,0.1c-0.1,0.1-0.1,0.3-0.1,0.4c0,0.1,0,0.2,0.1,0.3l5.5,7.9c0.5,1.3,1.3,2.4,2.2,3.4c0.5,0.6,1.4-0.3,0.8-0.9&#10;&#9;&#9;c0,0,0-0.1-0.1-0.1c0,0,0-0.1,0.1-0.1c0.2,0,0.3-0.2,0.4-0.3l0,0c0.1,0,0.1,0.1,0.2,0.1c0.3,0.2,0.6,0.2,0.8-0.1&#10;&#9;&#9;C189.8,140.8,189.9,140.6,189.8,140.4z"/>
	<path class="st13_conference-3-59" d="M185.6,129.8c-0.9,0.8-1.5,1.9-1.4,3.1c0,0.3,0.4,0.3,0.4,0c-0.1-1.1,0.4-2.2,1.2-2.8&#10;&#9;&#9;C186.1,130,185.8,129.7,185.6,129.8z"/>
	<path class="st13_conference-3-59" d="M185,129.2c-0.3-1.1-0.6-2.2-0.8-3.4c0-0.3-0.4-0.2-0.4,0.1c0.2,1.1,0.5,2.2,0.8,3.4c0,0.1,0.1,0.2,0.3,0.1&#10;&#9;&#9;C185,129.4,185,129.3,185,129.2z"/>
	<path class="st13_conference-3-59" d="M183.2,130.1c-0.6-1.2-1-2.5-1.4-3.8c0-0.1-0.1-0.2-0.3-0.2c-0.1,0-0.2,0.1-0.2,0.3c0.4,1.3,0.8,2.7,1.4,3.9&#10;&#9;&#9;C183,130.6,183.3,130.4,183.2,130.1z"/>
	<path class="st13_conference-3-59" d="M182.6,131.8c-0.9-1-1.7-2.2-2.3-3.4c-0.1-0.2-0.5,0-0.4,0.2c0.6,1.3,1.4,2.4,2.3,3.5&#10;&#9;&#9;C182.4,132.3,182.7,132,182.6,131.8z"/>
	<path class="st13_conference-3-59" d="M222.7,233.9c0,0-0.3,8.4,1.2,10.9s9.2,6.8,7.1,8.6s-6.8,0.9-8.4-1.1c-1-1.4-2-2.8-2.8-4.3v3.2&#10;&#9;&#9;c0,0-3.2-1.9-3.2-2s-0.7-18.9-0.7-18.9"/>
	<path class="st13_conference-3-59" d="M211.1,237.5c0,0-0.3,8.4,1.2,10.9s9.6,8.3,7.6,10.1s-6.8,0.1-8.8-2.3c-1.1-1.4-2.1-3-2.9-4.6v3.2&#10;&#9;&#9;c0,0-3.2-1.9-3.2-2s-0.7-18.9-0.7-18.9"/>
	<path class="st15_conference-3-59" d="M226.3,166.9c0.4,1.1,4.1,62.4,0.2,70.2c-3.2,1.7-6.8,2.4-10.4,2.2l-1.3,4.6c0,0-9.7,3-16.7,0.1&#10;&#9;&#9;c0,0-4-54.8,8.3-77.3"/>
	<path class="st12_conference-3-59" d="M226.4,166.2c0.2-2.8,0.2-6.5,0.3-7.2c0.1-1.7,0.2-3.4,0.3-5c0.1-2,0.2-4,0.3-6.1c0.1-2.9,0.5-6.4-1.6-8.8&#10;&#9;&#9;s-6.7-3.3-9.9-2.9c-3.2,0.6-6.1,2.4-8.1,5c-1.1,8.4-1.5,17-1.4,25.5C212.5,168.5,221.7,170.2,226.4,166.2z"/>
	<path class="st12_conference-3-59" d="M215.5,136.7c-2.5,0.1-4.9,0.9-7.1,2.2c-1.6,1.1-2.5,2.8-4.3,3.6c-2.4,1.2-5.8,1.2-7.7-0.8&#10;&#9;&#9;c-1-1.1-2-2.3-2.9-3.6c-0.7-0.9-3.7-5.8-5.3-5.2c-1.8,0.7-4.5,3.3-4.6,4.7s7.6,16.8,14.5,17.8c4.3,0.6,8.6-0.4,12.2-2.7"/>
	<path class="st11_conference-3-59" d="M213.8,134v4.4c1.7,0.5,3.6,0.5,5.3,0v-3.9"/>
	<path class="st14_conference-3-59" d="M213.8,134v4.4c1.7,0.5,3.6,0.5,5.3,0v-3.9"/>
	<path class="st11_conference-3-59" d="M223,124c0.3,0.1,2.2,13.1-3.2,13.2s-6.4-4.1-6.6-5.2s1.6-4.4,2.1-5.6S221.7,123.7,223,124z"/>
	<path class="st10_conference-3-59" d="M223.6,122.7c-1.6-3-7.9-3.6-12.3,0.4c-1.1,1.2-1.8,2.8-1.8,4.4c0.2,3.3,2.2,6.3,5.2,7.7c0,0,0,0,0-0.1&#10;&#9;&#9;s0-0.2-0.1-0.2c0-0.1,0-0.1,0-0.2c-0.5-2.4-0.3-4.9,0.7-7.2c1.1-2.1,3.2-2.6,5.4-3c0.7-0.2,1.4-0.3,2.1-0.2l0.7,3.3&#10;&#9;&#9;C224.6,126.2,224.6,124.2,223.6,122.7z"/>
	<circle class="st10_conference-3-59" cx="207.5" cy="124.3" r="4.2"/>
	<path class="st10_conference-3-59" d="M223.6,126.7h-5.1l-0.5-1.5l-0.4,1.9l-1.5,0.1c0,0-0.1,7.9-1.2,8s-2.7-3.2-2.9-5.2s0.9-6.2,4.6-7.4&#10;&#9;&#9;C221.3,121.2,223.4,123,223.6,126.7z"/>
	<path class="st13_conference-3-59" d="M219.5,181.6c-0.7,19.3-2,38.5-4,57.8c-0.1,0.6,0.9,0.6,0.9,0c2-19.2,3.3-38.5,4-57.8&#10;&#9;&#9;C220.4,181,219.5,181,219.5,181.6z"/>
</g>
</svg>