<svg transform="scale(1)" version="1.1" id="Layer_1" xmlns="http://www.w3.org/2000/svg" xmlns:xlink="http://www.w3.org/1999/xlink" x="0px" y="0px" viewBox="0 0 500 500" xml:space="preserve" class="show_show__wrapper__graphic__5Waiy "><title>React</title><style type="text/css">
	.st0{fill:#CCA8FF;}
	.st1{fill:url(#SVGID_1_);}
	.st2{fill:url(#SVGID_00000091704696035343582570000015821877366651324853_);}
	.st3{fill:url(#SVGID_00000133495047393192783590000010436212425985799071_);}
	.st4{fill:url(#SVGID_00000026848696880139341110000004208139443043525807_);}
	.st5{fill:url(#SVGID_00000034067717670387709330000015766161713836731017_);}
	.st6{opacity:0.3;enable-background:new    ;}
	.st7{opacity:0.18;enable-background:new    ;}
	.st8{fill:#8BD346;}
	.st9{opacity:0.1;enable-background:new    ;}
	.st10{opacity:0.31;enable-background:new    ;}
	.st11{fill:#F49992;}
	.st12{opacity:0.5;fill:#F49992;enable-background:new    ;}
	.st13{fill:#68E1FD;}
	.st14{opacity:0.12;enable-background:new    ;}
	.st15{fill:#FFFFFF;}
	.st16{fill:#56403D;}
	.st17{fill:#FFBE8D;}
	.st18{fill:#FFC019;}
	.st19{fill:#B76748;}
	.st20{opacity:0.38;enable-background:new    ;}
</style><g id="background"><path class="st0" d="M243.1,397.1l-225.1-133c-7.2-4-13.3-10.6-6.3-15l225.9-130.2c3.4-2.1,8.5-3.5,12-1.5l236.3,137.2
		c7.2,4.2,8.5,15.8,1.3,19.9L272.7,396.9C263.6,402.2,252.3,402.3,243.1,397.1z"></path><linearGradient id="SVGID_1_" gradientUnits="userSpaceOnUse" x1="404.601" y1="210.809" x2="428.301" y2="234.809" gradientTransform="matrix(1 0 0 -1 0 502)"><stop offset="0" style="stop-color: rgb(204, 168, 255);"></stop><stop offset="1" style="stop-color: rgb(86, 64, 61);"></stop></linearGradient><polygon class="st1" points="448.8,276.2 412.1,298.2 384.4,281.9 419.5,264.4 	"></polygon><linearGradient id="SVGID_00000047747995100835468510000002369134026291817896_" gradientUnits="userSpaceOnUse" x1="123.4809" y1="182.9491" x2="144.2709" y2="204.0091" gradientTransform="matrix(1 0 0 -1 0 502)"><stop offset="0" style="stop-color: rgb(204, 168, 255);"></stop><stop offset="1" style="stop-color: rgb(86, 64, 61);"></stop></linearGradient><polygon points="162.5,306.1 131.9,326.2 
		105.5,310.6 139.6,287.1 	" style="fill: url(&quot;#SVGID_00000047747995100835468510000002369134026291817896_&quot;);"></polygon><linearGradient id="SVGID_00000029013826720350736490000008079126669473204908_" gradientUnits="userSpaceOnUse" x1="93.216" y1="165.0568" x2="63.926" y2="196.0968" gradientTransform="matrix(-1 0 0 -1 365.64 502)"><stop offset="0" style="stop-color: rgb(204, 168, 255);"></stop><stop offset="1" style="stop-color: rgb(86, 64, 61);"></stop></linearGradient><path d="M282.8,300l48.8,25.2l-49.8,31.2h-1.3
		c-20.1-11.1-33.8-19.4-48.1-28.2C251,318.3,265.7,312,282.8,300z" style="fill: url(&quot;#SVGID_00000029013826720350736490000008079126669473204908_&quot;);"></path><linearGradient id="SVGID_00000083065991198074303740000014718310783158160831_" gradientUnits="userSpaceOnUse" x1="224.2043" y1="244.8945" x2="194.9242" y2="275.9345" gradientTransform="matrix(-1 0 0 -1 365.64 502)"><stop offset="0" style="stop-color: rgb(204, 168, 255);"></stop><stop offset="1" style="stop-color: rgb(86, 64, 61);"></stop></linearGradient><path d="M151.9,220.1l48.8,25.2l-49.8,31.2h-1.3
		c-20.1-11.1-33.8-19.4-48.1-28.2C120,238.5,134.7,232.2,151.9,220.1z" style="fill: url(&quot;#SVGID_00000083065991198074303740000014718310783158160831_&quot;);"></path><linearGradient id="SVGID_00000009575711390725799330000001788845758356708787_" gradientUnits="userSpaceOnUse" x1="158.1169" y1="204.7871" x2="128.8369" y2="235.827" gradientTransform="matrix(-1 0 0 -1 365.64 502)"><stop offset="0" style="stop-color: rgb(204, 168, 255);"></stop><stop offset="1" style="stop-color: rgb(86, 64, 61);"></stop></linearGradient><path d="M217.9,260.2l48.8,25.2L217,316.7h-1.3
		c-20.1-11.1-33.8-19.4-48.1-28.2C186.1,278.6,200.8,272.3,217.9,260.2z" style="fill: url(&quot;#SVGID_00000009575711390725799330000001788845758356708787_&quot;);"></path></g><g id="data"><polyline class="st6" points="282.1,160 282.1,297.7 328.2,328.2 380.4,298.3 380.4,156.1 	"></polyline><polygon class="st6" points="328.2,185.9 328.2,328.2 380.4,298.3 380.4,156.1 	"></polygon><polygon class="st6" points="282.1,160 334.6,129.7 380.4,156.1 328.2,185.9 	"></polygon><polyline class="st7" points="282.1,160 282.1,297.7 328.2,328.2 380.4,298.3 380.4,156.1 	"></polyline><polyline class="st8" points="151.9,160 151.9,221.2 198,246.7 250.2,219.6 250.2,156.1 	"></polyline><polygon class="st9" points="198,185.9 198,246.7 250.2,219.6 250.2,156.1 	"></polygon><polygon class="st8" points="151.9,160 204.4,129.7 250.2,156.1 198,185.9 	"></polygon><polygon class="st10" points="151.9,160 204.4,129.7 250.2,156.1 198,185.9 	"></polygon><polyline class="st11" points="216.2,162.1 216.2,261.7 262.3,288.5 314.4,257.8 314.4,158.2 	"></polyline><polygon class="st9" points="262.3,188 262.3,288.5 314.4,258.7 314.4,158.2 	"></polygon><polygon class="st11" points="216.2,162.1 268.7,131.8 314.4,158.2 262.3,188 	"></polygon><polygon class="st12" points="216.2,162.1 268.7,131.8 314.4,158.2 262.3,188 	"></polygon><polyline class="st13" points="282.1,160 282.1,297.7 328.2,328.2 380.4,298.3 380.4,156.1 	"></polyline><polygon class="st13" points="328.2,185.9 328.2,328.2 380.4,298.3 380.4,156.1 	"></polygon><polyline class="st14" points="282.1,160 282.1,297.7 328.2,328.2 380.4,298.3 380.4,156.1 	"></polyline><polygon class="st13" points="328.2,185.9 328.2,328.2 380.4,298.3 380.4,156.1 	"></polygon><polygon class="st10" points="328.2,185.9 328.2,328.2 380.4,298.3 380.4,156.1 	"></polygon><polygon class="st13" points="282.1,160 334.6,129.7 380.4,156.1 328.2,185.9 	"></polygon></g><g id="character_1"><path class="st11" d="M160.2,186.7l17.2,9.9c0,0,6.5-3.4,7.8-8.6s-3-10.1,0.4-17.5s11.7-11.7,9.6-21.1l-26.8-10.1
		c0,0,1.6,10.1-2.3,12.5s-8,12.4-7.5,17.5S162.4,183.6,160.2,186.7z"></path><path class="st15" d="M190.8,151.5l-18.7-6.7c-0.8-0.3-1.1,0.9-0.3,1.2l18.7,6.7C191.2,153,191.5,151.8,190.8,151.5z"></path><path class="st15" d="M175.9,150.6c-1.6-0.6-3.1-1.2-4.7-1.8c-0.8-0.3-1.1,0.9-0.3,1.2c1.6,0.6,3.2,1.2,4.7,1.8
		C176.3,152.1,176.6,150.9,175.9,150.6z"></path><path class="st15" d="M183.9,157.9l-14.9-6.1c-0.7-0.3-1.1,0.9-0.3,1.2l14.9,6.1C184.3,159.5,184.7,158.2,183.9,157.9z"></path><path class="st15" d="M171.2,157.1c-1.3-0.8-2.7-1.5-4.1-2.1c-0.7-0.3-1.4,0.8-0.6,1.1c1.4,0.6,2.8,1.3,4.1,2.1
		c0.3,0.1,0.7,0,0.8-0.3C171.5,157.6,171.5,157.2,171.2,157.1z"></path><path class="st16" d="M140.4,299.4l-5.2-1.4l0.8-6.3C136,291.7,141.6,292.6,140.4,299.4z"></path><path class="st11" d="M133.3,281c0,0-1.8,21.4-1.3,21.6s5.5,0.7,5.5,0.3s0.3-9.7,0.3-9.7s2.5,4.1,2.6,6.2c0,0,6-3.4,7.1-6.1
		s-2.5-14.1-3.9-14.8"></path><path class="st16" d="M153.2,310.6l-5.9-6.2l3.8-4.9C151.2,299.5,154.8,307.4,153.2,310.6z"></path><path class="st11" d="M144.5,285.9l-2.7,25.6c0,0,4.4,1.5,5.2,1.4c1.1-0.4,2.2-0.9,3.2-1.5l1-8.6c0,0,2.5,2.5,2.1,7.8
		c0-0.4,4.1-1.7,4.6-1.9c1.6-0.7,3.2-1.6,4.7-2.6c1.6-1.1,7.4-5.9,4.2-7.8c-2.6-1.6-11.2-0.9-11.2-0.9l-0.1-10.5"></path><path class="st13" d="M134.3,194.1c0.1-0.5,1.1-5.6,0.8-5.6c0.9-2.9,0.5-0.2,1.5-1.4l24.8-2.9c0,0,5,17.7,6.9,48.3
		c1.5,23.7-10.1,58.9-10.1,58.9s-12,3.1-17.8-2.9l0.2-5.1c-3,0-6-0.3-9-0.7C128.6,253.2,130.9,223.3,134.3,194.1z"></path><path d="M139.6,287.1c1-7.3,2.1-14.7,3.1-22c1-7,2.5-14.2,2.6-21.3s-2.4-13.5-3.6-20.2c-1.1-6.5-1.4-13.2-0.9-19.8
		c0.1-1.5,2.3-1.6,2.2,0c-0.6,7.4-0.2,14.9,1.4,22.1c1.4,6.5,3.3,12.7,3,19.4s-1.6,13.7-2.6,20.4l-3.1,22
		C141.5,289.3,139.4,288.6,139.6,287.1z"></path><path class="st17" d="M165.7,174.5c0.8-0.8,1.6-1.6,2.3-2.5c0,0,0-0.1,0.1-0.1c2.1-2.6,4.4-5,6.8-7.2l3.2-6.8l0,0
		c0.2-0.5,0.7-0.8,1.2-0.7c0.2,0.1,0.4,0.2,0.5,0.3c0.8,0.7,0.1,3.7-0.2,4.6l-0.1,0.3c-0.1,0.2-0.2,1-0.4,1c1.9-1,4-1.5,6.1-1.6
		c0.6,0,1.1,0.5,1.1,1.1c0,0.2,0,0.4-0.1,0.6c-0.2,0.3-0.6,0.6-0.9,0.9h0.2c1.5-0.2,2.6,0.4,2.1,2.1c0,0.1-0.1,0.3-0.2,0.4
		c-0.1,0.3-0.3,0.6-0.7,0.7l0.1,0.2c0.4,0.3,0.6,0.7,0.6,1.2c-0.1,0.9-0.9,1.6-1.8,1.5l-0.5,0.1c0.2,1.5-1.1,2.3-2.5,2.5
		c-1.6,0.3-3.2,0.4-4.7,0.7l-3,3.7c-0.8,1-1.9,3.3-3.3,3.5s-2-1.9-0.6-2.1c-0.3,0,0.2-0.3,0.3-0.4c0.3-0.3,0.5-0.7,0.8-1
		c-0.7,0.9-1.6,1.7-2.7,2.4c-0.5,0.3-1.2,0.1-1.5-0.5c-0.1-0.2-0.2-0.5-0.1-0.8c0.2-0.8,0.5-1.7,0.9-2.5c-0.2-0.2-0.3-0.4-0.4-0.6
		l-0.1,0.1c-0.2,0.2-0.5,0.3-0.7,0.3l-0.2,0.2C166.3,177.1,164.8,175.5,165.7,174.5z"></path><path class="st18" d="M144.4,148c0,0,14.3-1.3,17.7,6.3s1.7,18.3,1.7,18.3l8.7-6.7c0,0,4.3,5.2,4.8,8.4s-8.1,12.8-16.9,15
		s-24.4,2.8-26.9-2.5s-2.7-21.1,0.2-27.2S144.4,148,144.4,148z"></path><path class="st17" d="M157.1,134.6c0,0,0.7,10.5-2.5,12.9s-8.5-1.6-8.5-1.6s-3.3-9.4,2.4-11.4"></path><path d="M158.4,131.6c-0.6-2.6-3.2-4.6-5.6-5.3c-3.9-1.3-9.4,0-12.1,3.1c-1.4,1.8-2.4,4-2.9,6.2c-0.3,1.3-0.5,2.6-0.6,3.9
		c-0.1,3.5-0.7,9.1-0.9,12.8c4.5,2.8,9.1,2.8,14.4,2.1c-0.6-2.2-0.9-4.4-0.9-6.6c-0.1-1.2-0.1-2.5,0-3.7c0-0.3,0-0.5,0.1-0.8
		c-1.5-0.7-3.1-2.4-2.2-3.9c0.4-0.8,1.4-1.1,2.2-0.6c0.1,0,0.2,0.1,0.2,0.2c0.1-0.7,0.4-1.4,0.9-1.9c0.8-0.7,2-0.6,3-0.6
		c1.5,0.1,2.9,0.1,4.4,0c0.1-0.1,0.1-0.3,0.1-0.5c-0.1-1.1-0.1-2.2,0-3.2C158.6,132.4,158.5,132,158.4,131.6z"></path></g><g id="character_2"><path class="st19" d="M205.6,231c1.6-1.1,3.3-2,5.1-2.6c1.9-0.7,7.5-6.4,7.9-6.9s1.5-3.4,2.4-3.5s3,1.1,3,1.1s3.1-2.8,5.6-1.7
		c0,0,2.3,1.4,1.8,8.1c0.1,0.1,0.1,0.1,0.2,0.2c0.1,1.1,0.1,2.1,0,3.2c-1,1.5-2.5,2.6-4.1,3.3c-2.1,0.9-6.8,4.4-9.8,4.9
		s-8.6-0.1-10.4-1c-1.2-0.5-2-1.6-2.1-2.9C205.1,232.4,205.2,231.6,205.6,231z"></path><path class="st18" d="M223.5,218.7c0,0,3.6-2.6,6.2-1.4s1.8,7.2,1.8,7.2s-0.3,3.4-4.6,5.1s-3.7,3.5-9.3,4.8s-11.2-0.4-12.1-2.2
		s2.6-2.9,2.8-3.1s5.3-2.9,6.5-4.3s3.4-3.9,4.1-5.1s1.1-2.4,2.4-2.1C222.2,217.9,222.9,218.2,223.5,218.7z"></path><path class="st19" d="M212.1,226.9c0,0.2,0.2,0.4,0.4,0.3c0,0,0,0,0,0h0.1c1.1,0.6,2.2,1.4,3.3,2.2c0.2,0.1,0.4,0.1,0.5-0.1
		c0.1-0.1,0.1-0.2,0.1-0.3c-0.2-0.6-0.4-1.2-0.5-1.8c0.9,0.1,1.7,0.3,2.5,0.6c0.2,0.1,0.4-0.1,0.5-0.3c0-0.2,0-0.3-0.2-0.4l0,0
		c0,0,0-0.1-0.1-0.1c-0.1-0.2-0.1-0.3-0.2-0.5c-0.1-0.3-0.3-0.7-0.4-1c0.7,0.2,1.4,0.4,2,0.7c0.4,0.2,0.8-0.3,0.5-0.6
		c-0.2-0.7-0.4-1.3-0.6-1.9c0.9,0,1.8,0.1,2.7,0.4c0.5,0.1,0.7-0.6,0.2-0.7c-1.1-0.3-2.2-0.5-3.3-0.4c-0.2-0.4-0.4-0.9-0.7-1.3
		c-0.2-0.4-0.9-0.1-0.7,0.3s0.4,0.6,0.6,1c-0.6,0-1.2,0.1-1.9,0.2c-0.1,0-0.1,0-0.2,0c-0.1,0-0.2,0.1-0.2,0.2c0,0.1,0,0.2,0,0.2
		c0.1,0.3,0.3,0.6,0.4,0.9c-0.5,0-1.1,0-1.6,0v-0.1c-0.2,0.2-0.4,0.4-0.6,0.6l0.3,1.3c-0.7,0-1.5,0-2.2,0.1l0,0
		C212.6,226.6,212.4,226.8,212.1,226.9z M217.8,224.6c-0.1-0.3-0.2-0.5-0.4-0.8c0.6-0.1,1.1-0.1,1.7-0.1c0.2,0.5,0.4,1,0.5,1.5
		C219.1,224.8,218.4,224.7,217.8,224.6z M215.8,226.4c-0.1-0.4-0.2-0.8-0.3-1.2c0.6-0.1,1.2-0.1,1.8,0c0.1,0.2,0.2,0.5,0.3,0.7
		s0.2,0.5,0.2,0.8C217.1,226.6,216.5,226.5,215.8,226.4L215.8,226.4z M213.9,227.1c0.4,0,0.9,0,1.3,0c0.1,0.4,0.2,0.7,0.3,1
		C215,227.8,214.5,227.4,213.9,227.1L213.9,227.1z"></path><path class="st19" d="M215.4,236.5c1.6-1.1,3.3-2,5.1-2.6c1.9-0.6,7.5-6.4,7.9-6.9s1.5-3.4,2.4-3.5s3,1.1,3,1.1s3.1-2.8,5.6-1.7
		c0,0,2.3,1.4,1.8,8.1c0.1,0.1,0.1,0.1,0.2,0.2c0.1,1.1,0.1,2.1,0,3.2c-1,1.5-2.5,2.6-4.1,3.3c-2.1,0.9-6.8,4.4-9.8,4.9
		s-8.6-0.1-10.4-1c-1.2-0.5-2-1.6-2.1-2.9C214.8,237.9,215,237.1,215.4,236.5z"></path><path class="st18" d="M233.2,224.2c0,0,3.6-2.6,6.2-1.4s1.8,7.2,1.8,7.2s-0.3,3.4-4.5,5.1s-3.7,3.5-9.3,4.8s-11.2-0.4-12.1-2.1
		s2.6-2.9,2.8-3.1s5.3-2.8,6.5-4.3s3.4-3.9,4.1-5.1s1.1-2.4,2.4-2.1C231.9,223.4,232.6,223.7,233.2,224.2z"></path><path class="st19" d="M221.9,232.4c0,0.2,0.2,0.4,0.4,0.3c0,0,0,0,0,0h0.1c1.1,0.6,2.2,1.4,3.3,2.2c0.2,0.1,0.4,0.1,0.5-0.1
		c0.1-0.1,0.1-0.2,0.1-0.3c-0.2-0.6-0.4-1.2-0.5-1.8c0.9,0.1,1.7,0.3,2.5,0.6c0.2,0.1,0.4,0,0.5-0.2c0.1-0.2,0-0.4-0.2-0.5l0,0
		c0,0,0-0.1-0.1-0.1c-0.1-0.2-0.1-0.4-0.2-0.5l-0.4-1c0.7,0.1,1.4,0.4,2,0.7c0.4,0.2,0.8-0.4,0.5-0.6c-0.1-0.7-0.4-1.3-0.6-1.9
		c0.9,0,1.8,0.1,2.7,0.4c0.5,0.1,0.7-0.6,0.2-0.7c-1.1-0.3-2.2-0.5-3.3-0.4c-0.2-0.4-0.4-0.9-0.7-1.3s-0.9-0.1-0.7,0.3
		s0.4,0.6,0.6,1c-0.6,0-1.2,0.1-1.9,0.2h-0.2c-0.1,0-0.2,0.1-0.2,0.3c0,0.1,0,0.2,0,0.2l0.4,0.9c-0.5-0.1-1.1-0.1-1.6,0V230
		c-0.2,0.2-0.4,0.4-0.6,0.6l0.3,1.3c-0.7,0-1.5,0-2.2,0.1l0,0C222.3,232.1,222.1,232.3,221.9,232.4z M227.5,230.1
		c-0.1-0.3-0.2-0.5-0.4-0.8c0.6-0.1,1.2-0.1,1.7-0.1c0.2,0.5,0.4,1,0.5,1.5C228.8,230.4,228.2,230.2,227.5,230.1z M225.5,231.9
		l-0.3-1.2c0.6-0.1,1.2-0.1,1.8,0l0.3,0.7c0.1,0.2,0.2,0.5,0.2,0.8C226.9,232.1,226.2,232,225.5,231.9L225.5,231.9z M223.7,232.6
		c0.4,0,0.9,0,1.3,0c0.1,0.3,0.2,0.7,0.3,1C224.7,233.3,224.2,232.9,223.7,232.6L223.7,232.6z"></path><path class="st16" d="M246.4,111.6c0,0-7.2,24.1-8.6,28.9s-17.3,11-14.2,14.4s13.6,7.6,13.6,7.6s13.9-14.8,15.4-18.9"></path><path class="st19" d="M259.6,144.2c0,0,6.9,20.2,4.4,23.6s-24.8,19-26.7,20.9s-4.3,31-4.3,31c-6.2,3.3-13.6-0.6-13.6-0.6
		s-3.9-35.6,0.4-42.7s27.6-32.6,28.6-34.4"></path><path class="st9" d="M259.6,144.2c0,0,6.9,20.2,4.4,23.6s-24.8,19-26.7,20.9s-4.3,31-4.3,31c-6.2,3.3-13.6-0.6-13.6-0.6
		s-3.9-35.6,0.4-42.7s27.6-32.6,28.6-34.4"></path><path class="st19" d="M257.1,147.3c-1,1.8-24.3,27.3-28.6,34.4s-0.4,42.7-0.4,42.7s7.4,3.9,13.6,0.6c0,0,2.4-29.1,4.2-31
		s24.6-17.4,26.7-20.9c6.5-11,1.4-26.1,1.4-26.1"></path><path class="st16" d="M276,152.4c1.2-4.2,1.9-8.5,2.1-12.9c0.5-6.1,0.7-12.1,0.4-18.2c-0.2-2.6-0.5-5.3-2.2-7.4
		c-3.7-4.8-14.6-11.1-20.7-12.1c-14.1-2.2-9.6,22.8-9.2,31.5c0.1,3.8-3.1,10,1.8,14s20.4,9.2,23.6,9.4
		C273.7,156.9,275.1,154.6,276,152.4z"></path><path class="st17" d="M265.5,98.5l0.1,7.5c0,0-2.4,1.7-8.9-0.9l-0.6-4.4"></path><path class="st9" d="M265.5,98.5l0.1,7.5c0,0-2.4,1.7-8.9-0.9l-0.6-4.4"></path><path class="st17" d="M251.1,86.9c0,0,0.1,15.2,3.8,16.2s8.1-0.7,9.6-2.5s4.9-11.2,3.7-13S253.4,84.3,251.1,86.9z"></path><path d="M249,81.4c0.9-0.3,1.8-0.4,2.7-0.2c0.4-1.3,1.2-2.4,2.3-3.1c2-1.3,4.5-1.3,6.5-0.1c0.4,0.2,0.7,0.5,1,0.8
		c1.2-1,2.8-1.4,4.4-1.2c1.8,0.3,3.3,1.6,3.8,3.4c0.1,0.5,0.2,1,0.1,1.5c0.2,0,0.5,0.1,0.7,0.1c1.6,0.5,2.7,1.7,3.1,3.3
		c0.3,1.3,0,2.8-0.8,3.9c1,1.2,1.2,2.8,0.6,4.2c-0.7,1.5-2.1,2.4-3.7,2.5c0.2,0.7,0.2,1.5,0,2.2c-0.9,1.7-3.1,2.3-5.2,2.7
		c0-1,0-1.9,0-2.9c0-0.1,0-0.2,0-0.3c0.7-0.6,1.3-1.2,1.9-2c0.7-1,1.3-2.4,0.3-3.5s-2.6-0.6-3.4,0.5c-0.2-0.5-0.4-1-0.6-1.5l0,0
		c-0.8-2.5-3.3-2.9-5.7-3.1c-3.7,1.7-9.1,2.7-10.2-2C246,84.5,246.8,82.1,249,81.4z"></path><path class="st19" d="M266.9,105.8l-1.6-2.5c0,0-4.2,2.3-5.9,2.5s-3-2.3-3-2.3s-1.9,2.2-1.7,2.7s0.2,6.9,0.4,6.6s3.5-2.7,3.5-2.7
		l-0.3,3.8l9.7-7.5L266.9,105.8z"></path><polyline class="st13" points="248,172.4 269.2,160.1 241.1,143.9 219.9,155.3 	"></polyline><polyline class="st20" points="248,172.4 269.2,160.1 241.1,143.9 219.9,155.3 	"></polyline><path class="st13" d="M242.5,148l5.5,24.4c-0.1-0.3-27.5-15-27.7-15.6s-7.2-25.6-7.2-25.6L242.5,148z"></path><ellipse class="st15" transform="matrix(0.9265 -0.3762 0.3762 0.9265 -40.2618 97.5635)" cx="229.7" cy="151.9" rx="2.9" ry="4.4"></ellipse><path class="st17" d="M256.7,161.7c0,0-3.5,1.5-4.4,1.8s-4.7,6-4.8,6.4s0.9,0.6,1.9,0c0,0-1.3,1.4-0.6,1.8s1.9-0.6,2.1-0.9
		c0,0-0.8,1,0,1.4s1.9-0.9,1.9-0.9c-0.1,0.4,0.1,0.8,0.4,1c0.5,0.5,2-1.2,2.3-1.8s1.5-2.2,2.1-2.3c1.3,0,2.6-0.3,3.8-0.9
		c1.1-0.7,2.9-4.5,2.9-4.5l-4.4-3.5L256.7,161.7z"></path><path class="st16" d="M265.1,166c2.9-2.2,8.7-5.8,10.7-9.9c5.1-10.6,2.9-28.5,2.9-28.5l-14.1,10.5l2.8,12.8c0,0-6.8,6.1-9.9,9.2
		C260.5,163.2,261.1,164.4,265.1,166z"></path></g><g id="lamp"><path class="st19" d="M421.3,259.8c-0.5,0-1.1-0.1-1.6-0.3l-0.2,1.6l25.8,0.7v-1.9H421.3z"></path><path class="st19" d="M419.7,259.5l-0.2,1.5l14.2,8.2v-2C428.9,265,424.3,262.3,419.7,259.5z"></path><path class="st19" d="M434.1,148.4c-0.8,0.1-1.7,0-2.5-0.4L415.3,274c1,0.6,2,1.1,3,1.7l16.5-127.4L434.1,148.4z"></path><path class="st19" d="M437.9,148.3c-0.6,0.1-1.2,0.1-1.8,0c-0.5,0-1,0-1.4,0.1l11,129.1c0.9-0.4,1.7-0.8,2.6-1.1l0.4-0.2h0.1
		L437.9,148.3z"></path><path class="st19" d="M436.1,148.3c-0.7,0-1.3,0-2,0.1c-0.3,0-0.5,0.1-0.8,0.1L432.2,285l0,0c0.6-0.2,1.2-0.2,1.7-0.1h0.9l0.5,0
		l1.1-136.4L436.1,148.3z"></path><path class="st13" d="M418.3,150.5v28.2c0,0,32.5,1,32.5,0v-28.2"></path><ellipse class="st16" cx="434.5" cy="150.4" rx="16.2" ry="7.5"></ellipse><ellipse class="st13" cx="434.5" cy="179.1" rx="16.2" ry="7.5"></ellipse></g></svg>